<?xml version="1.0" encoding="UTF-8"?>
<svg version="1.1" xmlns="http://www.w3.org/2000/svg" width="259" height="194">
<path d="M0 0 C85.47 0 170.94 0 259 0 C259 64.02 259 128.04 259 194 C173.53 194 88.06 194 0 194 C0 129.98 0 65.96 0 0 Z " fill="#FEFDFE" transform="translate(0,0)"/>
<path d="M0 0 C1.09371414 -0.00102219 2.18742828 -0.00204437 3.31428528 -0.00309753 C6.90251427 0.00175032 10.48814744 0.05606425 14.07592773 0.11108398 C16.57411815 0.12415001 19.07232657 0.13410943 21.57054138 0.14109802 C27.45681999 0.16502543 33.34215159 0.22009959 39.2280435 0.29054445 C46.59318955 0.376762 53.9584524 0.41412297 61.32397461 0.45288086 C74.44878975 0.52781075 87.57284711 0.64582706 100.69702148 0.79467773 C100.69702148 2.44467773 100.69702148 4.09467773 100.69702148 5.79467773 C99.50077148 6.20717773 98.30452148 6.61967773 97.07202148 7.04467773 C93.20858855 8.48239264 90.0965085 10.4528089 86.69702148 12.79467773 C85.97514648 13.07956055 85.25327148 13.36444336 84.50952148 13.65795898 C80.81736726 15.15020465 77.38599438 17.02972129 73.88452148 18.91967773 C67.33497668 22.42899996 60.73983867 25.81780094 54.05126953 29.05493164 C49.194095 31.43808021 44.54511601 33.94658321 40.69702148 37.79467773 C40.04018449 43.42906816 40.04018449 43.42906816 42.50952148 48.23217773 C44.70085073 49.95933518 44.70085073 49.95933518 47.69702148 50.79467773 C47.69702148 51.45467773 47.69702148 52.11467773 47.69702148 52.79467773 C52.64702148 52.79467773 57.59702148 52.79467773 62.69702148 52.79467773 C62.69702148 53.45467773 62.69702148 54.11467773 62.69702148 54.79467773 C63.41889648 55.00092773 64.14077148 55.20717773 64.88452148 55.41967773 C68.68158149 57.27601818 70.19515228 59.38935576 72.69702148 62.79467773 C74.84694988 69.24446293 74.58139294 77.66538838 71.69702148 83.79467773 C68.37406932 87.02432886 65.44703664 89.79467773 60.69702148 89.79467773 C60.69702148 90.45467773 60.69702148 91.11467773 60.69702148 91.79467773 C41.88702148 91.79467773 23.07702148 91.79467773 3.69702148 91.79467773 C3.69702148 99.05467773 3.69702148 106.31467773 3.69702148 113.79467773 C-1.25297852 113.79467773 -6.20297852 113.79467773 -11.30297852 113.79467773 C-11.30297852 106.53467773 -11.30297852 99.27467773 -11.30297852 91.79467773 C-12.96385498 91.79991455 -14.62473145 91.80515137 -16.3359375 91.81054688 C-22.47281357 91.82858832 -28.60968728 91.8401066 -34.74658203 91.84960938 C-37.40739333 91.85465156 -40.06820184 91.86148509 -42.72900391 91.87011719 C-46.54403367 91.88218782 -50.35902695 91.88790703 -54.17407227 91.89233398 C-55.97091713 91.90007591 -55.97091713 91.90007591 -57.80406189 91.90797424 C-59.45566063 91.90808754 -59.45566063 91.90808754 -61.140625 91.90820312 C-62.11547348 91.91042374 -63.09032196 91.91264435 -64.0947113 91.91493225 C-66.30297852 91.79467773 -66.30297852 91.79467773 -67.30297852 90.79467773 C-68.8117777 79.92199086 -68.8117777 79.92199086 -66.04516602 76.02124023 C-64.24047852 74.73217773 -64.24047852 74.73217773 -62.04516602 73.44311523 C-58.37471949 71.23666447 -55.1765597 68.56336567 -51.86547852 65.85717773 C-50.55150864 64.79977709 -49.23642418 63.7437598 -47.92016602 62.68920898 C-46.98382324 61.93824951 -46.98382324 61.93824951 -46.02856445 61.17211914 C-43.1767005 58.89563124 -40.29094527 56.66376532 -37.40454102 54.43139648 C-33.33604522 51.26280961 -29.32368872 48.02352288 -25.30297852 44.79467773 C-23.51179467 43.35657617 -21.72013799 41.9190633 -19.92797852 40.48217773 C-18.74075195 39.52891602 -18.74075195 39.52891602 -17.52954102 38.55639648 C-9.12494829 31.9064468 -10.85283831 33.79467773 3.69702148 33.79467773 C3.69702148 49.96467773 3.69702148 66.13467773 3.69702148 82.79467773 C10.86925424 82.72068458 18.04023865 82.63785552 25.21191406 82.53222656 C27.65130131 82.49898357 30.09076537 82.47094972 32.53027344 82.44824219 C36.0380118 82.41468556 39.54504674 82.36236725 43.05249023 82.30639648 C44.68712471 82.2968116 44.68712471 82.2968116 46.3547821 82.28703308 C53.50029403 82.16958653 53.50029403 82.16958653 59.69702148 78.79467773 C60.35702148 78.79467773 61.01702148 78.79467773 61.69702148 78.79467773 C62.94773916 75.0425247 63.43136082 71.67834866 62.69702148 67.79467773 C60.58460846 64.87457738 59.91815533 64.05830993 56.69702148 62.79467773 C54.43228896 62.57345844 52.15867229 62.43585106 49.88452148 62.35717773 C42.97327393 62.10147619 38.72677231 60.55970483 33.69702148 55.79467773 C30.3268677 51.3713509 29.52756662 47.08574621 29.32202148 41.60717773 C29.27303711 40.72674805 29.22405273 39.84631836 29.17358398 38.93920898 C29.69702148 35.79467773 29.69702148 35.79467773 34.69702148 26.79467773 C0.37702148 26.79467773 -33.94297852 26.79467773 -69.30297852 26.79467773 C-69.30297852 23.82467773 -69.30297852 20.85467773 -69.30297852 17.79467773 C-67.55609741 17.8199353 -67.55609741 17.8199353 -65.77392578 17.84570312 C-61.41792906 17.89666059 -57.06367984 17.88787406 -52.70751953 17.86181641 C-50.82889618 17.85875019 -48.95017339 17.87149562 -47.07177734 17.90087891 C-36.26189742 18.37846852 -36.26189742 18.37846852 -26.32592773 14.96606445 C-24.07133103 12.76447309 -24.07133103 12.76447309 -22.42773438 10.40966797 C-15.95617196 2.44495408 -10.15411004 -0.25178977 0 0 Z " fill="#0506EF" transform="translate(105.302978515625,38.205322265625)"/>
<path d="M0 0 C1.09371414 -0.00102219 2.18742828 -0.00204437 3.31428528 -0.00309753 C6.90251427 0.00175032 10.48814744 0.05606425 14.07592773 0.11108398 C16.57411815 0.12415001 19.07232657 0.13410943 21.57054138 0.14109802 C27.45681999 0.16502543 33.34215159 0.22009959 39.2280435 0.29054445 C46.59318955 0.376762 53.9584524 0.41412297 61.32397461 0.45288086 C74.44878975 0.52781075 87.57284711 0.64582706 100.69702148 0.79467773 C100.69702148 2.44467773 100.69702148 4.09467773 100.69702148 5.79467773 C99.50077148 6.20717773 98.30452148 6.61967773 97.07202148 7.04467773 C93.20858855 8.48239264 90.0965085 10.4528089 86.69702148 12.79467773 C85.97514648 13.07956055 85.25327148 13.36444336 84.50952148 13.65795898 C80.81736726 15.15020465 77.38599438 17.02972129 73.88452148 18.91967773 C67.33497668 22.42899996 60.73983867 25.81780094 54.05126953 29.05493164 C49.194095 31.43808021 44.54511601 33.94658321 40.69702148 37.79467773 C40.04018449 43.42906816 40.04018449 43.42906816 42.50952148 48.23217773 C44.70085073 49.95933518 44.70085073 49.95933518 47.69702148 50.79467773 C47.69702148 51.45467773 47.69702148 52.11467773 47.69702148 52.79467773 C52.64702148 52.79467773 57.59702148 52.79467773 62.69702148 52.79467773 C62.69702148 53.45467773 62.69702148 54.11467773 62.69702148 54.79467773 C64.34702148 55.45467773 65.99702148 56.11467773 67.69702148 56.79467773 C67.891936 58.2520386 68.07771506 59.71062366 68.25952148 61.16967773 C68.36393555 61.98178711 68.46834961 62.79389648 68.57592773 63.63061523 C68.69702148 65.79467773 68.69702148 65.79467773 67.69702148 67.79467773 C67.03702148 67.79467773 66.37702148 67.79467773 65.69702148 67.79467773 C65.03702148 66.47467773 64.37702148 65.15467773 63.69702148 63.79467773 C63.03702148 63.79467773 62.37702148 63.79467773 61.69702148 63.79467773 C61.03702148 62.80467773 60.37702148 61.81467773 59.69702148 60.79467773 C58.70702148 60.79467773 57.71702148 60.79467773 56.69702148 60.79467773 C56.69702148 59.47467773 56.69702148 58.15467773 56.69702148 56.79467773 C55.70702148 57.45467773 54.71702148 58.11467773 53.69702148 58.79467773 C51.21655273 58.77124023 51.21655273 58.77124023 48.50952148 58.41967773 C47.6084668 58.30881836 46.70741211 58.19795898 45.77905273 58.08374023 C45.09198242 57.98834961 44.40491211 57.89295898 43.69702148 57.79467773 C43.36702148 56.80467773 43.03702148 55.81467773 42.69702148 54.79467773 C41.70702148 55.78467773 41.70702148 55.78467773 40.69702148 56.79467773 C39.70702148 57.28967773 39.70702148 57.28967773 38.69702148 57.79467773 C38.44952148 56.99030273 38.20202148 56.18592773 37.94702148 55.35717773 C37.53452148 54.51155273 37.12202148 53.66592773 36.69702148 52.79467773 C34.6819379 52.06143977 34.6819379 52.06143977 32.69702148 51.79467773 C29.73814982 45.8769344 31.53621211 36.17912929 32.69702148 29.79467773 C33.68702148 28.30967773 33.68702148 28.30967773 34.69702148 26.79467773 C0.37702148 26.79467773 -33.94297852 26.79467773 -69.30297852 26.79467773 C-69.30297852 23.82467773 -69.30297852 20.85467773 -69.30297852 17.79467773 C-67.55609741 17.8199353 -67.55609741 17.8199353 -65.77392578 17.84570312 C-61.41792906 17.89666059 -57.06367984 17.88787406 -52.70751953 17.86181641 C-50.82889618 17.85875019 -48.95017339 17.87149562 -47.07177734 17.90087891 C-36.26189742 18.37846852 -36.26189742 18.37846852 -26.32592773 14.96606445 C-24.07133103 12.76447309 -24.07133103 12.76447309 -22.42773438 10.40966797 C-15.95617196 2.44495408 -10.15411004 -0.25178977 0 0 Z " fill="#0402E6" transform="translate(105.302978515625,38.205322265625)"/>
<path d="M0 0 C0.33 0.66 0.66 1.32 1 2 C19.81 1.505 19.81 1.505 39 1 C38.34 1.99 37.68 2.98 37 4 C33.94924916 4.266487 31.10373821 4.34757146 28.0546875 4.29296875 C26.72716965 4.28660149 26.72716965 4.28660149 25.37283325 4.28010559 C22.53991555 4.26328259 19.70770348 4.22562425 16.875 4.1875 C14.95704151 4.17245782 13.03907189 4.15876861 11.12109375 4.14648438 C6.41378969 4.11336727 1.70701456 4.06156055 -3 4 C-3 6.97 -3 9.94 -3 13 C31.32 13 65.64 13 101 13 C99 19 99 19 97 22 C96.20224756 28.41310079 96.27878515 35.50220516 100 41 C104.79478899 46.01372913 109.29465844 47.27450417 116.125 47.5 C121.61751639 47.68427274 125.05644018 48.11447745 128.9140625 52.1875 C130.52663413 54.87898646 130.84753637 56.99975995 130.5625 60.10546875 C129.40047395 64.01923706 126.51525106 66.08422873 123.14910889 68.11862183 C120.57527455 69.17418556 118.64334111 69.24080862 115.86425781 69.22705078 C114.84350159 69.22689972 113.82274536 69.22674866 112.77105713 69.22659302 C111.67613953 69.21627045 110.58122192 69.20594788 109.453125 69.1953125 C107.76361725 69.19106766 107.76361725 69.19106766 106.03997803 69.18673706 C102.44321054 69.17554374 98.84669221 69.15044037 95.25 69.125 C92.81120151 69.11496912 90.37239912 69.10584346 87.93359375 69.09765625 C81.95555598 69.07730895 75.97805685 69.03815781 70 69 C70 52.83 70 36.66 70 20 C57.12426409 19.83327733 57.12426409 19.83327733 48.5625 25.5625 C47.67691406 26.38878906 46.79132813 27.21507813 45.87890625 28.06640625 C45.25886719 28.70449219 44.63882813 29.34257813 44 30 C43.505 28.515 43.505 28.515 43 27 C44.4375 24.3125 44.4375 24.3125 46 22 C45.34 21.67 44.68 21.34 44 21 C44.66 21 45.32 21 46 21 C46 20.01 46 19.02 46 18 C46.63808594 17.87882812 47.27617188 17.75765625 47.93359375 17.6328125 C48.75988281 17.46523437 49.58617187 17.29765625 50.4375 17.125 C51.26121094 16.96257812 52.08492187 16.80015625 52.93359375 16.6328125 C53.61550781 16.42398438 54.29742187 16.21515625 55 16 C55.33 15.34 55.66 14.68 56 14 C35.87 14 15.74 14 -5 14 C-5 10.37 -5 6.74 -5 3 C-3.35 2.67 -1.7 2.34 0 2 C0 1.34 0 0.68 0 0 Z " fill="#F8F8FB" transform="translate(39,52)"/>
<path d="M0 0 C0.66 0 1.32 0 2 0 C3.00566495 10.29814519 3.1192996 20.47648146 3.0625 30.8125 C3.041875 36.154375 3.02125 41.49625 3 47 C21.81 47 40.62 47 60 47 C60 46.34 60 45.68 60 45 C61.65 45 63.3 45 65 45 C65.99 47.475 65.99 47.475 67 50 C59.57966282 52.96608222 53.25268467 53.40136889 45.30859375 53.29296875 C44.12274185 53.28872391 42.93688995 53.28447906 41.71510315 53.28010559 C37.95566374 53.26341433 34.19677533 53.22577888 30.4375 53.1875 C27.87696091 53.17244086 25.31641335 53.15875462 22.75585938 53.14648438 C16.50352708 53.11610375 10.25237481 53.05736124 4 53 C4 60.59 4 68.18 4 76 C-0.29 76 -4.58 76 -9 76 C-9.495 65.605 -9.495 65.605 -10 55 C-13.2278125 54.93941406 -16.455625 54.87882812 -19.78125 54.81640625 C-22.92547692 54.75450559 -26.06967177 54.69116412 -29.21386719 54.62768555 C-31.39027013 54.58451322 -33.5667031 54.54282654 -35.74316406 54.50268555 C-38.88095119 54.4445518 -42.01858967 54.38098397 -45.15625 54.31640625 C-46.12115356 54.29969376 -47.08605713 54.28298126 -48.0802002 54.26576233 C-53.45983248 54.14917851 -58.67347648 53.76993473 -64 53 C-63.58682778 48.17965738 -61.61980085 46.09007389 -58 43 C-57.34 43 -56.68 43 -56 43 C-55.34 44.32 -54.68 45.64 -54 47 C-39.48 47 -24.96 47 -10 47 C-10.07917133 32.93864415 -10.07917133 32.93864415 -10.18017578 18.87744141 C-10.18601524 17.11881756 -10.19111209 15.36019102 -10.1953125 13.6015625 C-10.20554443 12.68334717 -10.21577637 11.76513184 -10.22631836 10.8190918 C-10.22656006 9.94631592 -10.22680176 9.07354004 -10.22705078 8.17431641 C-10.231492 7.41486725 -10.23593323 6.65541809 -10.24050903 5.87295532 C-10 4 -10 4 -8 2 C-5.31160615 1.73008094 -2.70858064 1.91262643 0 2 C0 1.34 0 0.68 0 0 Z " fill="#0302F1" transform="translate(104,75)"/>
<path d="M0 0 C0.66 0 1.32 0 2 0 C2.33 2.31 2.66 4.62 3 7 C4.25490234 5.52660156 4.25490234 5.52660156 5.53515625 4.0234375 C11.18288773 -0.81747519 18.4500735 0.36569301 25.4375 0.625 C26.85085466 0.65513688 28.2642712 0.68250615 29.67773438 0.70703125 C33.11978765 0.7727365 36.55949469 0.87604646 40 1 C40 3.64 40 6.28 40 9 C39.34 9 38.68 9 38 9 C38 9.99 38 10.98 38 12 C38.66 12 39.32 12 40 12 C40 12.99 40 13.98 40 15 C40.66 15 41.32 15 42 15 C41.67 10.38 41.34 5.76 41 1 C42.98 1 44.96 1 47 1 C47 7.27 47 13.54 47 20 C43.04 20 39.08 20 35 20 C34.34 17.69 33.68 15.38 33 13 C30.525 12.505 30.525 12.505 28 12 C28 14.64 28 17.28 28 20 C26.02 20 24.04 20 22 20 C22 15.38 22 10.76 22 6 C21.34 6 20.68 6 20 6 C20 10.62 20 15.24 20 20 C18.35 20 16.7 20 15 20 C15 18.68 15 17.36 15 16 C12.69 16 10.38 16 8 16 C8.33 17.32 8.66 18.64 9 20 C4.38 20 -0.24 20 -5 20 C-5 18.68 -5 17.36 -5 16 C-5.99 16.66 -6.98 17.32 -8 18 C-11 18 -11 18 -13.1875 16 C-13.785625 15.34 -14.38375 14.68 -15 14 C-14.67 15.98 -14.34 17.96 -14 20 C-15.98 20 -17.96 20 -20 20 C-20 13.73 -20 7.46 -20 1 C-15.46213776 3.26893112 -14.05321843 5.09866534 -11 9 C-7.14953498 8.46568437 -5.76036068 6.9165738 -3.375 3.9375 C-2.29107602 2.59087828 -1.17371898 1.26911978 0 0 Z " fill="#CC3535" transform="translate(134,132)"/>
<path d="M0 0 C0.33 0 0.66 0 1 0 C1.495 7.92 1.495 7.92 2 16 C2.66 16 3.32 16 4 16 C4.33 15.34 4.66 14.68 5 14 C5.125 21.75 5.125 21.75 4 24 C4.66 24 5.32 24 6 24 C6.5878125 25.299375 6.5878125 25.299375 7.1875 26.625 C9.3396405 30.63243403 11.809062 34.904531 16 37 C15.505 33.04 15.505 33.04 15 29 C16.98 29 18.96 29 21 29 C21 35.93 21 42.86 21 50 C17.37798963 48.18899481 16.24675064 47.41150146 13.875 44.4375 C11.79096366 41.78974334 11.79096366 41.78974334 9 40 C9.020625 41.299375 9.04125 42.59875 9.0625 43.9375 C9.08399454 45.29165633 9.07148199 46.64756083 9 48 C8 49 8 49 6.14233398 49.11352539 C4.95619507 49.10567017 4.95619507 49.10567017 3.74609375 49.09765625 C2.89208984 49.09443359 2.03808594 49.09121094 1.15820312 49.08789062 C-0.18854492 49.07532227 -0.18854492 49.07532227 -1.5625 49.0625 C-2.46419922 49.05798828 -3.36589844 49.05347656 -4.29492188 49.04882812 C-6.53001314 49.03700225 -8.76497437 49.0205222 -11 49 C-11.495 46.03 -11.495 46.03 -12 43 C-13.32 42.67 -14.64 42.34 -16 42 C-16 43.65 -16 45.3 -16 47 C-16.33 47 -16.66 47 -17 47 C-17 44.69 -17 42.38 -17 40 C-14.625 39.875 -14.625 39.875 -12 40 C-10 42 -10 42 -10 48 C-6.04 48 -2.08 48 2 48 C2 41.73 2 35.46 2 29 C0.02 29 -1.96 29 -4 29 C-3.505 29.99 -3.505 29.99 -3 31 C-2.92934383 33.04055005 -2.91578024 35.08334257 -2.9375 37.125 C-2.94652344 38.22070312 -2.95554687 39.31640625 -2.96484375 40.4453125 C-2.97644531 41.28835937 -2.98804688 42.13140625 -3 43 C-3.66 43 -4.32 43 -5 43 C-5 42.01 -5 41.02 -5 40 C-5.66 40 -6.32 40 -7 40 C-7 39.01 -7 38.02 -7 37 C-6.34 37 -5.68 37 -5 37 C-5 34.36 -5 31.72 -5 29 C-9.16354973 29.01949872 -13.3250947 29.07144648 -17.48779297 29.15258789 C-18.90173937 29.17568526 -20.31585579 29.19014419 -21.72998047 29.19555664 C-30.82148735 28.85558508 -30.82148735 28.85558508 -38.8359375 32.36328125 C-41.06588585 34.99147597 -41.06588585 34.99147597 -43 38 C-43 34.7 -43 31.4 -43 28 C-43.721875 28.721875 -44.44375 29.44375 -45.1875 30.1875 C-46.5796875 31.5796875 -46.5796875 31.5796875 -48 33 C-48.845625 33.94875 -49.69125 34.8975 -50.5625 35.875 C-51.366875 36.57625 -52.17125 37.2775 -53 38 C-55.63018361 37.80050504 -56.7401068 37.25367566 -58.6328125 35.40625 C-59.12523438 34.7771875 -59.61765625 34.148125 -60.125 33.5 C-62.19887681 30.8119616 -62.19887681 30.8119616 -65 29 C-65 35.27 -65 41.54 -65 48 C-63.02 48 -61.04 48 -59 48 C-59 48.33 -59 48.66 -59 49 C-60.258125 49.04125 -61.51625 49.0825 -62.8125 49.125 C-63.52019531 49.14820313 -64.22789063 49.17140625 -64.95703125 49.1953125 C-67 49 -67 49 -70 47 C-70 40.07 -70 33.14 -70 26 C-51.19 26 -32.38 26 -13 26 C-13 25.34 -13 24.68 -13 24 C-12.45730469 23.75765625 -11.91460937 23.5153125 -11.35546875 23.265625 C-10.64003906 22.93046875 -9.92460937 22.5953125 -9.1875 22.25 C-8.12595703 21.76273438 -8.12595703 21.76273438 -7.04296875 21.265625 C-4.5279624 19.70757135 -3.43985458 18.60545114 -2 16 C-1.47568667 13.20740067 -1.08345394 10.56394368 -0.8125 7.75 C-0.73064453 7.00492187 -0.64878906 6.25984375 -0.56445312 5.4921875 C-0.36508006 3.66264644 -0.18101526 1.83144849 0 0 Z " fill="#E5E2F3" transform="translate(179,104)"/>
<path d="M0 0 C0.69323364 -0.00058411 1.38646729 -0.00116821 2.10070801 -0.00177002 C4.37910028 0.00100411 6.6561641 0.03206124 8.93432617 0.06347656 C10.51901027 0.07094142 12.10370362 0.0766332 13.68840027 0.08062744 C17.84953514 0.09586473 22.01010725 0.13512948 26.17102051 0.17944336 C30.42082101 0.22043757 34.67071286 0.23864727 38.9206543 0.25878906 C47.25229211 0.30162616 55.58347342 0.36985369 63.91479492 0.45410156 C60.74939801 3.70383845 57.40693694 5.53907343 53.41479492 7.64160156 C52.3996582 8.19364258 52.3996582 8.19364258 51.36401367 8.75683594 C46.28975144 11.45410156 46.28975144 11.45410156 42.91479492 11.45410156 C42.91479492 12.11410156 42.91479492 12.77410156 42.91479492 13.45410156 C22.12479492 13.45410156 1.33479492 13.45410156 -20.08520508 13.45410156 C-18.10520508 11.14410156 -16.12520508 8.83410156 -14.08520508 6.45410156 C-13.42520508 6.45410156 -12.76520508 6.45410156 -12.08520508 6.45410156 C-12.08520508 5.79410156 -12.08520508 5.13410156 -12.08520508 4.45410156 C-8.19062774 0.48485017 -5.46660045 -0.03883908 0 0 Z " fill="#FAFBFA" transform="translate(105.085205078125,48.5458984375)"/>
<path d="M0 0 C0 11.55 0 23.1 0 35 C-14.52 35 -29.04 35 -44 35 C-44 34.34 -44 33.68 -44 33 C-42.46659493 31.76844632 -40.86933811 30.61615395 -39.25 29.5 C-34.0090946 25.78518199 -29.10068481 21.8034668 -24.1953125 17.66015625 C-19.60085039 13.80352259 -14.85799716 10.13434734 -10.12890625 6.4453125 C-8.13409861 4.88632426 -6.16000305 3.30019889 -4.21484375 1.6796875 C-2 0 -2 0 0 0 Z " fill="#F3F4FA" transform="translate(94,86)"/>
<path d="M0 0 C0.33 0 0.66 0 1 0 C1 6.27 1 12.54 1 19 C2.65 19.33 4.3 19.66 6 20 C6.495 22.475 6.495 22.475 7 25 C7.99 23.515 7.99 23.515 9 22 C9.66 22 10.32 22 11 22 C11.495 22.99 11.495 22.99 12 24 C14.25190053 24.50758392 14.25190053 24.50758392 16.875 24.6875 C17.75929688 24.77386719 18.64359375 24.86023438 19.5546875 24.94921875 C22.14021145 25.13984976 22.14021145 25.13984976 25 24 C25 25.32 25 26.64 25 28 C25.556875 27.731875 26.11375 27.46375 26.6875 27.1875 C29 27 29 27 31.75 29.25 C34 32 34 32 34 35 C34.66 35 35.32 35 36 35 C36 31.7 36 28.4 36 25 C41.83101175 30.5319855 41.83101175 30.5319855 42.16796875 35.453125 C42.24324789 46.23309823 42.24324789 46.23309823 40 51 C36.67704784 54.22965113 33.75001516 57 29 57 C29 57.66 29 58.32 29 59 C10.19 59 -8.62 59 -28 59 C-28 66.26 -28 73.52 -28 81 C-32.95 81 -37.9 81 -43 81 C-43 73.74 -43 66.48 -43 59 C-42.67 59 -42.34 59 -42 59 C-42 65.93 -42 72.86 -42 80 C-37.71 80 -33.42 80 -29 80 C-29 72.41 -29 64.82 -29 57 C-27.4008374 56.98018066 -25.8016748 56.96036133 -24.15405273 56.93994141 C-18.20695558 56.8637274 -12.26009804 56.77503393 -6.31323242 56.68261719 C-3.74199157 56.64439276 -1.17069844 56.6095286 1.40063477 56.578125 C5.10191501 56.53233302 8.80283736 56.47436077 12.50390625 56.4140625 C13.64896133 56.40251129 14.79401642 56.39096008 15.97377014 56.37905884 C21.70948292 56.27359179 26.57068592 55.85964144 32 54 C32.66 54 33.32 54 34 54 C33.36020151 51.96758273 33.36020151 51.96758273 32 50 C29.44480079 49.18828772 29.44480079 49.18828772 27 49 C27 49.66 27 50.32 27 51 C8.19 51 -10.62 51 -30 51 C-30 35.16 -30 19.32 -30 3 C-34.95 3.33 -39.9 3.66 -45 4 C-45 4.99 -45 5.98 -45 7 C-45.66 7 -46.32 7 -47 7 C-47 7.66 -47 8.32 -47 9 C-47.928125 9.12375 -47.928125 9.12375 -48.875 9.25 C-49.57625 9.4975 -50.2775 9.745 -51 10 C-51.268125 10.639375 -51.53625 11.27875 -51.8125 11.9375 C-53 14 -53 14 -56.625 15.25 C-57.73875 15.4975 -58.8525 15.745 -60 16 C-56.47892926 10.94802894 -51.88426192 7.62880023 -47 4 C-45.68 3.01 -44.36 2.02 -43 1 C-38.05 1 -33.1 1 -28 1 C-28 17.17 -28 33.34 -28 50 C-20.82776724 49.92600685 -13.65678284 49.84317778 -6.48510742 49.73754883 C-4.04572017 49.70430583 -1.60625612 49.67627199 0.83325195 49.65356445 C4.34099032 49.62000783 7.84802525 49.56768951 11.35546875 49.51171875 C12.99010323 49.50213387 12.99010323 49.50213387 14.65776062 49.49235535 C21.80327255 49.3749088 21.80327255 49.3749088 28 46 C28.66 46 29.32 46 30 46 C31.25071768 42.24784697 31.73433934 38.88367093 31 35 C28.88758698 32.07989965 28.22113385 31.26363219 25 30 C22.73526747 29.77878071 20.46165081 29.64117333 18.1875 29.5625 C11.27625245 29.30679845 7.02975083 27.7650271 2 23 C-1.51690318 18.38406458 -2.14868243 14.14368241 -2.1875 8.4375 C-2.20167969 7.48746094 -2.21585938 6.53742188 -2.23046875 5.55859375 C-2 3 -2 3 0 0 Z " fill="#0304F2" transform="translate(137,71)"/>
<path d="M0 0 C0.66 0 1.32 0 2 0 C2.495 3.96 2.495 3.96 3 8 C22.8 8 42.6 8 63 8 C63 8.33 63 8.66 63 9 C53.43762033 9.17378652 43.87511986 9.34003275 34.3125 9.5 C33.60275402 9.51187725 32.89300804 9.5237545 32.16175461 9.53599167 C6.43962125 9.96384257 -19.27405929 10.13038488 -45 10 C-45 7.36 -45 4.72 -45 2 C-44.45098526 1.98969254 -43.90197052 1.97938507 -43.33631897 1.96876526 C-37.64278719 1.86092053 -31.94942079 1.74630551 -26.25610352 1.62768555 C-24.12885993 1.58426577 -22.0015799 1.54259607 -19.87426758 1.50268555 C-16.82361849 1.44515293 -13.77315411 1.38141033 -10.72265625 1.31640625 C-9.76537125 1.29969376 -8.80808624 1.28298126 -7.8217926 1.26576233 C-6.50053627 1.2358445 -6.50053627 1.2358445 -5.15258789 1.20532227 C-4.37315323 1.18977798 -3.59371857 1.1742337 -2.79066467 1.15821838 C-0.97706647 1.19110881 -0.97706647 1.19110881 0 0 Z " fill="#0604DD" transform="translate(81,55)"/>
<path d="M0 0 C0.71081223 -0.00175232 1.42162445 -0.00350464 2.15397644 -0.00531006 C4.51193664 -0.00972298 6.86982219 -0.00679099 9.2277832 -0.00341797 C10.86725377 -0.00409154 12.50672424 -0.00506202 14.14619446 -0.00631714 C17.58868355 -0.00779366 21.03114673 -0.0056424 24.47363281 -0.00097656 C28.87396421 0.00469828 33.2742343 0.00145574 37.67456341 -0.00454903 C41.06415767 -0.00817506 44.45373758 -0.00700629 47.84333229 -0.00442123 C49.46475036 -0.00375644 51.08616976 -0.00456467 52.70758629 -0.00690079 C54.98347759 -0.00945835 57.2592721 -0.00554227 59.53515625 0 C60.82818161 0.00079559 62.12120697 0.00159119 63.45341492 0.00241089 C67.09587212 0.12956236 70.49938099 0.54586159 74.09106445 1.12939453 C74.58606445 3.10939453 74.58606445 3.10939453 75.09106445 5.12939453 C74.0865625 4.96334717 73.08206055 4.7972998 72.04711914 4.6262207 C65.326237 3.79323508 58.55145323 4.07891552 51.79418945 4.18017578 C50.31305197 4.19943923 48.83191176 4.21849396 47.35076904 4.23735046 C44.26103993 4.27813557 41.17141213 4.32333502 38.08178711 4.37133789 C34.12535654 4.43217935 30.16889586 4.47898355 26.21223831 4.52216816 C23.15980162 4.55752409 20.107541 4.60175517 17.0552597 4.64851952 C15.59607793 4.66952965 14.13684809 4.68744239 12.67758942 4.70217323 C10.6411418 4.72376451 8.60485164 4.75891921 6.56860352 4.79467773 C5.4113678 4.81101761 4.25413208 4.82735748 3.06182861 4.8441925 C0.15545984 5.12321239 -1.39716493 5.74986427 -3.90893555 7.12939453 C-4.89893555 7.12939453 -5.88893555 7.12939453 -6.90893555 7.12939453 C-7.17706055 7.74814453 -7.44518555 8.36689453 -7.72143555 9.00439453 C-8.90893555 11.12939453 -8.90893555 11.12939453 -11.90893555 13.12939453 C-12.23893555 13.12939453 -12.56893555 13.12939453 -12.90893555 13.12939453 C-12.90893555 13.78939453 -12.90893555 14.44939453 -12.90893555 15.12939453 C-14.22893555 14.79939453 -15.54893555 14.46939453 -16.90893555 14.12939453 C-17.23893555 12.47939453 -17.56893555 10.82939453 -17.90893555 9.12939453 C-17.24893555 8.79939453 -16.58893555 8.46939453 -15.90893555 8.12939453 C-15.1873413 6.4857632 -14.51542134 4.81889067 -13.90893555 3.12939453 C-12.25893555 3.12939453 -10.60893555 3.12939453 -8.90893555 3.12939453 C-8.90893555 2.46939453 -8.90893555 1.80939453 -8.90893555 1.12939453 C-5.95080831 -0.34966909 -3.30137039 0.00203759 0 0 Z " fill="#0503F8" transform="translate(100.908935546875,41.87060546875)"/>
<path d="M0 0 C0.66 0.33 1.32 0.66 2 1 C1.34 2.32 0.68 3.64 0 5 C-0.66 5 -1.32 5 -2 5 C-1.21869929 7.49552484 -1.21869929 7.49552484 0 10 C0.99 10.33 1.98 10.66 3 11 C2.505 9.02 2.505 9.02 2 7 C2.99 7.33 3.98 7.66 5 8 C5.61875 7.21625 6.2375 6.4325 6.875 5.625 C9 3 9 3 11 1 C13.44182558 0.84177304 15.7644887 0.80739252 18.20361328 0.86474609 C18.9451767 0.87420761 19.68674011 0.88366913 20.45077515 0.89341736 C22.9075351 0.92715744 25.3637968 0.97525486 27.8203125 1.0234375 C29.52137949 1.04959823 31.22246043 1.07486575 32.92355347 1.09927368 C37.40522896 1.16598745 41.88661177 1.24486644 46.36804199 1.32623291 C50.93925729 1.40709191 55.51064451 1.47650998 60.08203125 1.546875 C69.05489362 1.6866844 78.02748847 1.839339 87 2 C87 2.66 87 3.32 87 4 C85.68 4.33 84.36 4.66 83 5 C83 4.67 83 4.34 83 4 C73.92498432 3.93053429 64.85005995 3.87720633 55.77483654 3.84456348 C51.56097724 3.82889769 47.34729964 3.80764297 43.13354492 3.77368164 C39.06813581 3.74112043 35.00290164 3.72315387 30.93737221 3.71536827 C29.38518837 3.7098189 27.83301427 3.69898245 26.28090477 3.68280983 C24.10917741 3.66107793 21.93817576 3.6580312 19.76635742 3.65942383 C18.52947678 3.65276199 17.29259613 3.64610016 16.01823425 3.63923645 C12.72338532 4.0330632 12.0229077 4.5116086 10 7 C9.34 7 8.68 7 8 7 C8 7.66 8 8.32 8 9 C4.535 11.97 4.535 11.97 1 15 C21.46 15.33 41.92 15.66 63 16 C63 15.34 63 14.68 63 14 C65.12040742 12.96966118 67.24647908 11.95097146 69.375 10.9375 C70.55835938 10.36902344 71.74171875 9.80054688 72.9609375 9.21484375 C73.96382813 8.81394531 74.96671875 8.41304687 76 8 C76.99 8.495 76.99 8.495 78 9 C76.68 9.33 75.36 9.66 74 10 C74 11.32 74 12.64 74 14 C69.545 14.495 69.545 14.495 65 15 C65 15.66 65 16.32 65 17 C63.0276801 18.9723199 61.52631081 19.89473902 59 21 C58.34 21 57.68 21 57 21 C56.67 22.32 56.34 23.64 56 25 C55.01 25 54.02 25 53 25 C53.50603992 22.83125748 53.99983813 21.00032373 55 19 C35.53 19 16.06 19 -4 19 C-3.01 18.34 -2.02 17.68 -1 17 C-1.495 13.04 -1.495 13.04 -2 9 C-2.99 9.66 -3.98 10.32 -5 11 C-7.03117371 11.24050903 -7.03117371 11.24050903 -9.37963867 11.22705078 C-10.26032516 11.22689972 -11.14101166 11.22674866 -12.04838562 11.22659302 C-12.99534805 11.21627045 -13.94231049 11.20594788 -14.91796875 11.1953125 C-15.89034988 11.1924826 -16.86273102 11.18965271 -17.86457825 11.18673706 C-20.97234366 11.17553599 -24.07982159 11.15043148 -27.1875 11.125 C-29.29361563 11.11497011 -31.39973578 11.10584427 -33.50585938 11.09765625 C-38.6706838 11.07559688 -43.83529315 11.04106746 -49 11 C-49 10.67 -49 10.34 -49 10 C-47.2531189 10.02525757 -47.2531189 10.02525757 -45.47094727 10.05102539 C-41.11495054 10.10198286 -36.76070133 10.09319633 -32.40454102 10.06713867 C-30.52591766 10.06407245 -28.64719488 10.07681789 -26.76879883 10.10620117 C-15.75962177 10.5699262 -15.75962177 10.5699262 -5.70654297 6.92529297 C-3.50631042 4.72506042 -1.68387848 2.61045712 0 0 Z " fill="#4F49D0" transform="translate(85,46)"/>
<path d="M0 0 C0 4.62 0 9.24 0 14 C-0.33 14 -0.66 14 -1 14 C-1 9.71 -1 5.42 -1 1 C-1.66 1 -2.32 1 -3 1 C-3 1.66 -3 2.32 -3 3 C-5.64 3.33 -8.28 3.66 -11 4 C-12.19764026 8.67975576 -12.11074878 13.19263844 -12.0625 17.984375 C-12.05871338 18.84057434 -12.05492676 19.69677368 -12.05102539 20.57891846 C-12.03884445 23.30266432 -12.02020048 26.02630253 -12 28.75 C-11.97351391 32.34895519 -11.95348844 35.94785965 -11.9375 39.546875 C-11.92920166 40.37910583 -11.92090332 41.21133667 -11.91235352 42.06878662 C-11.90381127 44.04605514 -11.94659374 46.0234344 -12 48 C-13 49 -13 49 -14.79066467 49.12025452 C-15.57009933 49.11803391 -16.349534 49.11581329 -17.15258789 49.11352539 C-18.03342545 49.11344986 -18.914263 49.11337433 -19.8217926 49.11329651 C-20.77907761 49.10813522 -21.73636261 49.10297394 -22.72265625 49.09765625 C-23.69786728 49.0962413 -24.67307831 49.09482635 -25.67784119 49.09336853 C-28.80609143 49.08775133 -31.93427123 49.07519593 -35.0625 49.0625 C-37.17773334 49.05748722 -39.29296781 49.05292393 -41.40820312 49.04882812 C-46.60549296 49.03777631 -51.80274145 49.02102146 -57 49 C-57 48.34 -57 47.68 -57 47 C-42.48 47 -27.96 47 -13 47 C-13 35.45 -13 23.9 -13 12 C-16.3 14.31 -19.6 16.62 -23 19 C-24.32 19 -25.64 19 -27 19 C-27.33 19.66 -27.66 20.32 -28 21 C-29.98 20.67 -31.96 20.34 -34 20 C-30.57996485 13.40421793 -30.57996485 13.40421793 -27.9375 11.5625 C-26 11 -26 11 -23 11 C-22.34 9.35 -21.68 7.7 -21 6 C-19.68 6 -18.36 6 -17 6 C-17 5.34 -17 4.68 -17 4 C-16.34 4 -15.68 4 -15 4 C-15 3.01 -15 2.02 -15 1 C-10.09931037 -0.63356321 -5.14261524 -0.05529694 0 0 Z " fill="#0504F1" transform="translate(107,74)"/>
<path d="M0 0 C0.66 0.99 1.32 1.98 2 3 C1.67 3.99 1.34 4.98 1 6 C0.34 6 -0.32 6 -1 6 C-0.85915204 7.79206547 -0.71216299 9.58364917 -0.5625 11.375 C-0.48128906 12.37273437 -0.40007812 13.37046875 -0.31640625 14.3984375 C-0.15034374 16.97927613 -0.15034374 16.97927613 1 19 C2.88764903 19.68472665 2.88764903 19.68472665 5.0625 20.125 C5.79597656 20.29257813 6.52945313 20.46015625 7.28515625 20.6328125 C7.85105469 20.75398438 8.41695312 20.87515625 9 21 C9 21.66 9 22.32 9 23 C13.95 23 18.9 23 24 23 C24 23.66 24 24.32 24 25 C26.475 25.99 26.475 25.99 29 27 C29.19491452 28.45736087 29.38069358 29.91594593 29.5625 31.375 C29.71912109 32.59316406 29.71912109 32.59316406 29.87890625 33.8359375 C30 36 30 36 29 38 C28.34 38 27.68 38 27 38 C26.34 36.68 25.68 35.36 25 34 C24.34 34 23.68 34 23 34 C22.34 33.01 21.68 32.02 21 31 C20.01 31 19.02 31 18 31 C18 29.68 18 28.36 18 27 C17.01 27.66 16.02 28.32 15 29 C12.51953125 28.9765625 12.51953125 28.9765625 9.8125 28.625 C8.91144531 28.51414062 8.01039063 28.40328125 7.08203125 28.2890625 C6.39496094 28.19367188 5.70789063 28.09828125 5 28 C4.67 27.01 4.34 26.02 4 25 C3.34 25.66 2.68 26.32 2 27 C1.34 27.33 0.68 27.66 0 28 C-0.2475 27.195625 -0.495 26.39125 -0.75 25.5625 C-1.1625 24.716875 -1.575 23.87125 -2 23 C-4.01508358 22.26676204 -4.01508358 22.26676204 -6 22 C-7.34413413 19.31173174 -7.13239863 17.18764598 -7.125 14.1875 C-7.12757813 13.14980469 -7.13015625 12.11210938 -7.1328125 11.04296875 C-7.01076175 8.24657058 -6.63363355 5.72060121 -6 3 C-4.35 3 -2.7 3 -1 3 C-0.67 2.01 -0.34 1.02 0 0 Z " fill="#0605F0" transform="translate(144,68)"/>
<path d="M0 0 C1.09327606 -0.00073013 2.18655212 -0.00146027 3.31295776 -0.00221252 C6.9169929 0.00126347 10.51972652 0.04012807 14.12353516 0.0793457 C16.62602024 0.08867371 19.12851447 0.09578988 21.63101196 0.1007843 C27.5384052 0.11790679 33.4453827 0.15728971 39.35256255 0.20753175 C46.74098097 0.26900192 54.12945758 0.29577784 61.51806641 0.32348633 C74.69147947 0.37707474 87.86450907 0.461425 101.03759766 0.56762695 C101.03759766 2.21762695 101.03759766 3.86762695 101.03759766 5.56762695 C98.13159504 6.82427673 96.24155181 7.56762695 93.03759766 7.56762695 C93.03759766 5.56762695 93.03759766 5.56762695 95.03759766 3.56762695 C81.98973181 3.54444369 68.94187087 3.52668132 55.89398861 3.51581478 C49.83516143 3.51059906 43.77634836 3.50352519 37.7175293 3.4921875 C31.86905847 3.48131208 26.02060121 3.47534023 20.17212105 3.47274971 C17.94224395 3.47090386 15.71236758 3.4672994 13.48249626 3.4618969 C10.35623452 3.45462473 7.23002862 3.45363862 4.10375977 3.45410156 C2.72487328 3.44870865 2.72487328 3.44870865 1.31813049 3.44320679 C-3.55148032 3.45099556 -8.16108753 3.74327939 -12.96240234 4.56762695 C-12.96240234 5.22762695 -12.96240234 5.88762695 -12.96240234 6.56762695 C-14.28240234 6.23762695 -15.60240234 5.90762695 -16.96240234 5.56762695 C-11.68783194 -0.0479864 -7.48221113 -0.13113154 0 0 Z " fill="#1C16C3" transform="translate(104.96240234375,38.432373046875)"/>
<path d="M0 0 C0.66 0 1.32 0 2 0 C3.5859375 1.64453125 3.5859375 1.64453125 5.375 3.8125 C7.7171919 6.64479813 9.98186585 8.89262439 13 11 C12.67 8.36 12.34 5.72 12 3 C13.98 3 15.96 3 18 3 C18 9.93 18 16.86 18 24 C14.37798963 22.18899481 13.24675064 21.41150146 10.875 18.4375 C8.79096366 15.78974334 8.79096366 15.78974334 6 14 C6 16.64 6 19.28 6 22 C4.02 22 2.04 22 0 22 C0 14.74 0 7.48 0 0 Z " fill="#D44949" transform="translate(182,130)"/>
<path d="M0 0 C0.33 0 0.66 0 1 0 C1.495 7.92 1.495 7.92 2 16 C2.66 16 3.32 16 4 16 C4.33 15.34 4.66 14.68 5 14 C5.125 21.75 5.125 21.75 4 24 C4.66 24 5.32 24 6 24 C6.495 26.475 6.495 26.475 7 29 C6.34 28.67 5.68 28.34 5 28 C5 27.34 5 26.68 5 26 C4.34 26 3.68 26 3 26 C3 33.26 3 40.52 3 48 C4.65 48 6.3 48 8 48 C8 48.33 8 48.66 8 49 C1.73 49 -4.54 49 -11 49 C-11.33 47.02 -11.66 45.04 -12 43 C-13.32 42.67 -14.64 42.34 -16 42 C-16 43.65 -16 45.3 -16 47 C-16.33 47 -16.66 47 -17 47 C-17 44.69 -17 42.38 -17 40 C-14.625 39.875 -14.625 39.875 -12 40 C-10 42 -10 42 -10 48 C-6.04 48 -2.08 48 2 48 C2 41.73 2 35.46 2 29 C0.02 29 -1.96 29 -4 29 C-3.67 29.66 -3.34 30.32 -3 31 C-2.92934383 33.04055005 -2.91578024 35.08334257 -2.9375 37.125 C-2.94652344 38.22070312 -2.95554688 39.31640625 -2.96484375 40.4453125 C-2.97644531 41.28835937 -2.98804688 42.13140625 -3 43 C-3.66 43 -4.32 43 -5 43 C-5 42.01 -5 41.02 -5 40 C-5.66 40 -6.32 40 -7 40 C-7 39.01 -7 38.02 -7 37 C-6.34 37 -5.68 37 -5 37 C-5 34.36 -5 31.72 -5 29 C-14.24 29 -23.48 29 -33 29 C-33 28.67 -33 28.34 -33 28 C-22.44 28 -11.88 28 -1 28 C-1 26.68 -1 25.36 -1 24 C-2.04800781 24.34224609 -2.04800781 24.34224609 -3.1171875 24.69140625 C-4.02726562 24.97886719 -4.93734375 25.26632813 -5.875 25.5625 C-6.77992188 25.85253906 -7.68484375 26.14257812 -8.6171875 26.44140625 C-11 27 -11 27 -13 26 C-13 25.34 -13 24.68 -13 24 C-12.18595703 23.63648438 -12.18595703 23.63648438 -11.35546875 23.265625 C-10.64003906 22.93046875 -9.92460937 22.5953125 -9.1875 22.25 C-8.12595703 21.76273438 -8.12595703 21.76273438 -7.04296875 21.265625 C-4.5279624 19.70757135 -3.43985458 18.60545114 -2 16 C-1.47568667 13.20740067 -1.08345394 10.56394368 -0.8125 7.75 C-0.73064453 7.00492187 -0.64878906 6.25984375 -0.56445312 5.4921875 C-0.36508006 3.66264644 -0.18101526 1.83144849 0 0 Z " fill="#EAE9F6" transform="translate(179,104)"/>
<path d="M0 0 C4.53786224 2.26893112 5.94678157 4.09866534 9 8 C12.59911648 7.44688903 13.92592019 6.28709295 16.125 3.4375 C17.6328125 1.49609375 17.6328125 1.49609375 19 0 C19.66 0 20.32 0 21 0 C21 5.94 21 11.88 21 18 C19.35 18 17.7 18 16 18 C16 16.35 16 14.7 16 13 C15.401875 13.66 14.80375 14.32 14.1875 15 C12 17 12 17 9 17 C6.8125 15 6.8125 15 5 13 C5.33 14.98 5.66 16.96 6 19 C4.02 19 2.04 19 0 19 C0 12.73 0 6.46 0 0 Z " fill="#D81012" transform="translate(114,133)"/>
<path d="M0 0 C5.28 0 10.56 0 16 0 C16 1.32 16 2.64 16 4 C12.37 4 8.74 4 5 4 C5 4.99 5 5.98 5 7 C7.64 7 10.28 7 13 7 C13 8.32 13 9.64 13 11 C10.69 11 8.38 11 6 11 C6 11.99 6 12.98 6 14 C10.62 14 15.24 14 20 14 C20 15.65 20 17.3 20 19 C13.4 19 6.8 19 0 19 C0 12.73 0 6.46 0 0 Z " fill="#CE3F40" transform="translate(202,133)"/>
<path d="M0 0 C0.97608217 2.92824652 1.08226668 4.95613276 1 8 C0.34 8 -0.32 8 -1 8 C-1 8.99 -1 9.98 -1 11 C-1.66 11 -2.32 11 -3 11 C-3 11.66 -3 12.32 -3 13 C-3.99 13.33 -4.98 13.66 -6 14 C-6.33 15.65 -6.66 17.3 -7 19 C-7.66 18.67 -8.32 18.34 -9 18 C-9 17.01 -9 16.02 -9 15 C-14.4973355 17.5258028 -14.28878182 18.67382426 -17 25 C0.82 25.33 18.64 25.66 37 26 C37 26.33 37 26.66 37 27 C29.18547248 27.02526563 21.37095542 27.04283105 13.55639648 27.05493164 C10.89558519 27.05997383 8.23477668 27.06680736 5.57397461 27.07543945 C1.75894484 27.08751009 -2.05604844 27.09322929 -5.87109375 27.09765625 C-7.66793861 27.10539818 -7.66793861 27.10539818 -9.50108337 27.11329651 C-11.15268211 27.11340981 -11.15268211 27.11340981 -12.83764648 27.11352539 C-13.81249496 27.115746 -14.78734344 27.11796661 -15.79173279 27.12025452 C-18 27 -18 27 -19 26 C-19.61399851 21.5754128 -19.75272081 17.41030787 -19 13 C-16.74564611 10.1479802 -14.20155051 8.64668659 -11 7 C-10.01 6.34 -9.02 5.68 -8 5 C-6.989375 4.690625 -5.97875 4.38125 -4.9375 4.0625 C-1.72369498 3.2287898 -1.72369498 3.2287898 0 0 Z " fill="#0504F0" transform="translate(57,103)"/>
<path d="M0 0 C0 16.17 0 32.34 0 49 C7.17223276 48.92600685 14.34321716 48.84317778 21.51489258 48.73754883 C23.95427983 48.70430583 26.39374388 48.67627199 28.83325195 48.65356445 C32.34099032 48.62000783 35.84802525 48.56768951 39.35546875 48.51171875 C40.99010323 48.50213387 40.99010323 48.50213387 42.65776062 48.49235535 C48.00469208 48.38866179 51.56160644 48.28810085 56 45 C56.66 45.33 57.32 45.66 58 46 C57.505 46.99 57.505 46.99 57 48 C56.34 48 55.68 48 55 48 C55 48.66 55 49.32 55 50 C36.19 50 17.38 50 -2 50 C-2 34.16 -2 18.32 -2 2 C-6.95 2.33 -11.9 2.66 -17 3 C-17 3.99 -17 4.98 -17 6 C-17.66 6 -18.32 6 -19 6 C-19 6.66 -19 7.32 -19 8 C-19.928125 8.12375 -19.928125 8.12375 -20.875 8.25 C-21.57625 8.4975 -22.2775 8.745 -23 9 C-23.268125 9.639375 -23.53625 10.27875 -23.8125 10.9375 C-25 13 -25 13 -28.625 14.25 C-29.73875 14.4975 -30.8525 14.745 -32 15 C-28.47892926 9.94802894 -23.88426192 6.62880023 -19 3 C-15 0 -15 0 0 0 Z " fill="#1818B3" transform="translate(109,72)"/>
<path d="M0 0 C0.33 0.66 0.66 1.32 1 2 C19.81 1.505 19.81 1.505 39 1 C38.34 1.99 37.68 2.98 37 4 C33.94924916 4.266487 31.10373821 4.34757146 28.0546875 4.29296875 C26.72716965 4.28660149 26.72716965 4.28660149 25.37283325 4.28010559 C22.53991555 4.26328259 19.70770348 4.22562425 16.875 4.1875 C14.95704151 4.17245782 13.03907189 4.15876861 11.12109375 4.14648438 C6.41378969 4.11336727 1.70701456 4.06156055 -3 4 C-3 6.97 -3 9.94 -3 13 C31.32 13 65.64 13 101 13 C100.34 14.98 99.68 16.96 99 19 C98.67 19 98.34 19 98 19 C98 17.35 98 15.7 98 14 C64.01 14 30.02 14 -5 14 C-5 10.37 -5 6.74 -5 3 C-3.35 2.67 -1.7 2.34 0 2 C0 1.34 0 0.68 0 0 Z " fill="#ABACE8" transform="translate(39,52)"/>
<path d="M0 0 C0.66 0 1.32 0 2 0 C2.33 2.31 2.66 4.62 3 7 C4.65 5.35 6.3 3.7 8 2 C8.66 2.33 9.32 2.66 10 3 C10 3.33 10 3.66 10 4 C12.97 4.495 12.97 4.495 16 5 C16 8.3 16 11.6 16 15 C13.36 15 10.72 15 8 15 C8.33 16.65 8.66 18.3 9 20 C4.38 20 -0.24 20 -5 20 C-5 18.68 -5 17.36 -5 16 C-5.66 15.67 -6.32 15.34 -7 15 C-6.01 14.67 -5.02 14.34 -4 14 C-4 15.65 -4 17.3 -4 19 C-2.35 19 -0.7 19 1 19 C0.67 12.73 0.34 6.46 0 0 Z " fill="#DC5555" transform="translate(134,132)"/>
<path d="M0 0 C0.99 0.495 0.99 0.495 2 1 C0.68 1.33 -0.64 1.66 -2 2 C-2 3.32 -2 4.64 -2 6 C-6.455 6.495 -6.455 6.495 -11 7 C-11 7.66 -11 8.32 -11 9 C-12.9723199 10.9723199 -14.47368919 11.89473902 -17 13 C-17.66 13 -18.32 13 -19 13 C-19.33 14.32 -19.66 15.64 -20 17 C-20.99 17 -21.98 17 -23 17 C-22.49396008 14.83125748 -22.00016187 13.00032373 -21 11 C-40.47 11 -59.94 11 -80 11 C-79.01 10.34 -78.02 9.68 -77 9 C-76.67 8.34 -76.34 7.68 -76 7 C-55.21 7.33 -34.42 7.66 -13 8 C-13 7.34 -13 6.68 -13 6 C-10.87959258 4.96966118 -8.75352092 3.95097146 -6.625 2.9375 C-5.44164062 2.36902344 -4.25828125 1.80054688 -3.0390625 1.21484375 C-2.03617187 0.81394531 -1.03328125 0.41304687 0 0 Z " fill="#3C38BE" transform="translate(161,54)"/>
<path d="M0 0 C-3 2 -3 2 -6 2 C-6 2.66 -6 3.32 -6 4 C-24.81 4 -43.62 4 -63 4 C-63 11.26 -63 18.52 -63 26 C-67.95 26 -72.9 26 -78 26 C-78 18.74 -78 11.48 -78 4 C-77.67 4 -77.34 4 -77 4 C-77 10.93 -77 17.86 -77 25 C-72.71 25 -68.42 25 -64 25 C-64 17.41 -64 9.82 -64 2 C-62.4008374 1.98018066 -60.8016748 1.96036133 -59.15405273 1.93994141 C-53.20695558 1.8637274 -47.26009804 1.77503393 -41.31323242 1.68261719 C-38.74199157 1.64439276 -36.17069844 1.6095286 -33.59936523 1.578125 C-29.89808499 1.53233302 -26.19716264 1.47436077 -22.49609375 1.4140625 C-21.35103867 1.40251129 -20.20598358 1.39096008 -19.02622986 1.37905884 C-13.3010408 1.2737853 -5.07476436 -1.69158812 0 0 Z " fill="#3B39BF" transform="translate(172,126)"/>
<path d="M0 0 C0.33 0 0.66 0 1 0 C1 6.27 1 12.54 1 19 C2.65 19.33 4.3 19.66 6 20 C6.33 21.65 6.66 23.3 7 25 C7.66 24.01 8.32 23.02 9 22 C9.66 22 10.32 22 11 22 C11.33 22.66 11.66 23.32 12 24 C14.25190053 24.50758392 14.25190053 24.50758392 16.875 24.6875 C17.75929687 24.77386719 18.64359375 24.86023438 19.5546875 24.94921875 C22.14021145 25.13984976 22.14021145 25.13984976 25 24 C25 25.32 25 26.64 25 28 C26.32 27.67 27.64 27.34 29 27 C29.66 28.98 30.32 30.96 31 33 C31.66 33 32.32 33 33 33 C33 33.99 33 34.98 33 36 C33.66 36 34.32 36 35 36 C34.67 38.97 34.34 41.94 34 45 C32.68 44.67 31.36 44.34 30 44 C30.33 43.67 30.66 43.34 31 43 C31.56757518 38.13506986 31.78004625 36.07829923 28.875 32.0625 C25.49212498 29.61975889 22.2727755 29.70382845 18.1875 29.5625 C11.27625245 29.30679845 7.02975083 27.7650271 2 23 C-1.51690318 18.38406458 -2.14868243 14.14368241 -2.1875 8.4375 C-2.20167969 7.48746094 -2.21585938 6.53742188 -2.23046875 5.55859375 C-2 3 -2 3 0 0 Z " fill="#2723D5" transform="translate(137,71)"/>
<path d="M0 0 C0.99 0.33 1.98 0.66 3 1 C-0.20907363 3.59374155 -3.54870604 5.37558749 -7.25 7.1875 C-8.49479526 7.80207606 -9.73958677 8.4166597 -10.984375 9.03125 C-12.32274152 9.68785712 -13.66128894 10.34409563 -15 11 C-17.83597552 12.39054284 -20.66874233 13.78738039 -23.5 15.1875 C-24.15774414 15.50807373 -24.81548828 15.82864746 -25.49316406 16.15893555 C-30.37905461 18.57631657 -35.11271458 21.11271458 -39 25 C-39.45384636 31.31707327 -39.45384636 31.31707327 -37 37 C-38.9375 36.625 -38.9375 36.625 -41 36 C-42.32229189 33.35541621 -42.09677194 31.32238699 -42.0625 28.375 C-42.05347656 27.37210938 -42.04445312 26.36921875 -42.03515625 25.3359375 C-42.01775391 24.17964844 -42.01775391 24.17964844 -42 23 C-41.34 23 -40.68 23 -40 23 C-40.33 21.35 -40.66 19.7 -41 18 C-41.33 18.66 -41.66 19.32 -42 20 C-42.66 19.67 -43.32 19.34 -44 19 C-43.505 17.515 -43.505 17.515 -43 16 C-42.34 16 -41.68 16 -41 16 C-40.67 15.34 -40.34 14.68 -40 14 C-38 13 -38 13 -35 12 C-35 11.34 -35 10.68 -35 10 C-34.01 10.33 -33.02 10.66 -32 11 C-32.99 12.485 -32.99 12.485 -34 14 C-33.67 14.99 -33.34 15.98 -33 17 C-32.45730469 16.71125 -31.91460937 16.4225 -31.35546875 16.125 C-30.64003906 15.75375 -29.92460937 15.3825 -29.1875 15 C-28.47980469 14.62875 -27.77210938 14.2575 -27.04296875 13.875 C-25 13 -25 13 -22 13 C-22 12.34 -22 11.68 -22 11 C-19.09399739 9.74335022 -17.20395416 9 -14 9 C-14 8.34 -14 7.68 -14 7 C-8.375 4 -8.375 4 -5 4 C-5 3.34 -5 2.68 -5 2 C-3.35 2 -1.7 2 0 2 C0 1.34 0 0.68 0 0 Z " fill="#0806E6" transform="translate(185,51)"/>
<path d="M0 0 C6.6 0 13.2 0 20 0 C20.33 0.66 20.66 1.32 21 2 C20.01 2.33 19.02 2.66 18 3 C17.67 7.62 17.34 12.24 17 17 C15.68 17 14.36 17 13 17 C13 12.38 13 7.76 13 3 C11.68 3 10.36 3 9 3 C9 7.29 9 11.58 9 16 C8.01 16 7.02 16 6 16 C6 11.71 6 7.42 6 3 C4.02 3 2.04 3 0 3 C0 2.01 0 1.02 0 0 Z " fill="#D30E0F" transform="translate(144,134)"/>
<path d="M0 0 C1.98 0 3.96 0 6 0 C6 6.27 6 12.54 6 19 C2.04 19 -1.92 19 -6 19 C-6 17.02 -6 15.04 -6 13 C-5.01 13 -4.02 13 -3 13 C-3 12.34 -3 11.68 -3 11 C-2.34 11 -1.68 11 -1 11 C-1 11.99 -1 12.98 -1 14 C-0.34 14 0.32 14 1 14 C0.67 9.38 0.34 4.76 0 0 Z " fill="#CF373A" transform="translate(175,133)"/>
<path d="M0 0 C0.02464849 5.39346988 0.04283531 10.78690725 0.05493164 16.18041992 C0.05997231 18.01668875 0.06680477 19.85295354 0.07543945 21.68920898 C0.08751672 24.32276401 0.09323081 26.95626616 0.09765625 29.58984375 C0.10281754 30.41588608 0.10797882 31.24192841 0.11329651 32.09300232 C0.11349205 34.06236368 0.06204152 36.03161614 0 38 C-1 39 -1 39 -2.79066467 39.12025452 C-3.57009933 39.11803391 -4.349534 39.11581329 -5.15258789 39.11352539 C-6.03342545 39.11344986 -6.914263 39.11337433 -7.8217926 39.11329651 C-8.77907761 39.10813522 -9.73636261 39.10297394 -10.72265625 39.09765625 C-11.69786728 39.0962413 -12.67307831 39.09482635 -13.67784119 39.09336853 C-16.80609143 39.08775133 -19.93427123 39.07519593 -23.0625 39.0625 C-25.17773334 39.05748722 -27.29296781 39.05292393 -29.40820312 39.04882812 C-34.60549296 39.03777631 -39.80274145 39.02102146 -45 39 C-45 38.34 -45 37.68 -45 37 C-30.48 37 -15.96 37 -1 37 C-1 25.45 -1 13.9 -1 2 C-2.98 2.99 -4.96 3.98 -7 5 C-6.1875 3.0625 -6.1875 3.0625 -5 1 C-2 0 -2 0 0 0 Z " fill="#0401BF" transform="translate(95,84)"/>
<path d="M0 0 C0 1.32 0 2.64 0 4 C-11.22 4.33 -22.44 4.66 -34 5 C-34 4.34 -34 3.68 -34 3 C-36.12563103 3.11376617 -38.2505261 3.24135631 -40.375 3.375 C-42.15003906 3.47941406 -42.15003906 3.47941406 -43.9609375 3.5859375 C-47.10562319 3.70217346 -47.10562319 3.70217346 -49 6 C-51.3828125 5.9765625 -51.3828125 5.9765625 -54.125 5.625 C-55.03507812 5.51414063 -55.94515625 5.40328125 -56.8828125 5.2890625 C-57.93082031 5.14597656 -57.93082031 5.14597656 -59 5 C-59 4.01 -59 3.02 -59 2 C-58.05492584 2.00666183 -58.05492584 2.00666183 -57.09075928 2.01345825 C-50.5372545 2.05768182 -43.98379207 2.08786242 -37.43017578 2.10986328 C-34.98386921 2.11992504 -32.53757467 2.13357581 -30.09130859 2.15087891 C-26.57646718 2.17511919 -23.0617847 2.18648138 -19.546875 2.1953125 C-18.4519574 2.20563507 -17.35703979 2.21595764 -16.22894287 2.22659302 C-14.69780853 2.22681961 -14.69780853 2.22681961 -13.13574219 2.22705078 C-11.79005157 2.23371262 -11.79005157 2.23371262 -10.41717529 2.24050903 C-6.4121507 1.84200893 -4.22938987 0 0 0 Z " fill="#EFE9FB" transform="translate(178,128)"/>
<path d="M0 0 C11.88 0 23.76 0 36 0 C36 6.6 36 13.2 36 20 C37.65 20 39.3 20 41 20 C41 20.33 41 20.66 41 21 C34.73 21 28.46 21 22 21 C21.67 19.02 21.34 17.04 21 15 C19.68 14.67 18.36 14.34 17 14 C17 15.65 17 17.3 17 19 C16.67 19 16.34 19 16 19 C16 16.69 16 14.38 16 12 C18.375 11.875 18.375 11.875 21 12 C23 14 23 14 23 20 C26.96 20 30.92 20 35 20 C35 13.73 35 7.46 35 1 C33.02 1 31.04 1 29 1 C29.33 1.66 29.66 2.32 30 3 C30.07065617 5.04055005 30.08421976 7.08334257 30.0625 9.125 C30.05347656 10.22070312 30.04445312 11.31640625 30.03515625 12.4453125 C30.02355469 13.28835937 30.01195312 14.13140625 30 15 C29.34 15 28.68 15 28 15 C28 14.01 28 13.02 28 12 C27.34 12 26.68 12 26 12 C26 11.01 26 10.02 26 9 C26.66 9 27.32 9 28 9 C28 6.36 28 3.72 28 1 C18.76 1 9.52 1 0 1 C0 0.67 0 0.34 0 0 Z " fill="#F8C7C6" transform="translate(146,132)"/>
<path d="M0 0 C0.433125 0.9590625 0.433125 0.9590625 0.875 1.9375 C1.82823451 4.15206079 1.82823451 4.15206079 4 5 C4 3.35 4 1.7 4 0 C10.15234375 -0.09765625 10.15234375 -0.09765625 12 0 C13.5400226 1.5400226 13.12965783 2.97283987 13.1328125 5.11328125 C13.13474609 6.3672168 13.13474609 6.3672168 13.13671875 7.64648438 C13.13285156 8.52626953 13.12898437 9.40605469 13.125 10.3125 C13.12886719 11.18068359 13.13273438 12.04886719 13.13671875 12.94335938 C13.13542969 13.78318359 13.13414062 14.62300781 13.1328125 15.48828125 C13.13168457 16.25696533 13.13055664 17.02564941 13.12939453 17.81762695 C13.00025274 19.9957373 12.59912705 21.9066251 12 24 C6.375 24.25 6.375 24.25 3 22 C2.8125 18.875 2.8125 18.875 3 16 C2.34 16 1.68 16 1 16 C1 16.99 1 17.98 1 19 C0.34 19 -0.32 19 -1 19 C-1 16.69 -1 14.38 -1 12 C2.18419421 13.37154686 3.97112596 14.86169983 6.125 17.5625 C8.20903634 20.21025666 8.20903634 20.21025666 11 22 C11 15.07 11 8.14 11 1 C9.02 1 7.04 1 5 1 C5.33 1.66 5.66 2.32 6 3 C6.039992 4.99960012 6.04346799 7.00047242 6 9 C1.79373966 7.49776416 0.26099979 4.71449966 -2 1 C-1.34 0.67 -0.68 0.34 0 0 Z " fill="#F4BDBA" transform="translate(189,132)"/>
<path d="M0 0 C1.77503906 0.03480469 1.77503906 0.03480469 3.5859375 0.0703125 C5.36871094 0.09738281 5.36871094 0.09738281 7.1875 0.125 C8.10273438 0.14820313 9.01796875 0.17140625 9.9609375 0.1953125 C9.9609375 1.1853125 9.9609375 2.1753125 9.9609375 3.1953125 C8.49405713 4.47086065 7.02116884 5.74412367 5.46875 6.9140625 C3.68593771 8.31004095 3.68593771 8.31004095 1.9609375 11.1953125 C1.9609375 7.8953125 1.9609375 4.5953125 1.9609375 1.1953125 C0.878125 2.278125 0.878125 2.278125 -0.2265625 3.3828125 C-1.61875 4.775 -1.61875 4.775 -3.0390625 6.1953125 C-3.8846875 7.1440625 -4.7303125 8.0928125 -5.6015625 9.0703125 C-8.0390625 11.1953125 -8.0390625 11.1953125 -10.1015625 11.3203125 C-12.7770743 9.76678952 -14.2510668 7.68573508 -16.0390625 5.1953125 C-15.3790625 4.8653125 -14.7190625 4.5353125 -14.0390625 4.1953125 C-14.0390625 4.8553125 -14.0390625 5.5153125 -14.0390625 6.1953125 C-13.3790625 6.1953125 -12.7190625 6.1953125 -12.0390625 6.1953125 C-11.7090625 4.8753125 -11.3790625 3.5553125 -11.0390625 2.1953125 C-10.0903125 2.2365625 -9.1415625 2.2778125 -8.1640625 2.3203125 C-4.21562117 2.16237485 -3.91115389 0.2513595 0 0 Z " fill="#FAECE8" transform="translate(134.0390625,130.8046875)"/>
<path d="M0 0 C0.66 0.33 1.32 0.66 2 1 C0.6875 3.5 0.6875 3.5 -1 6 C-1.99 6 -2.98 6 -4 6 C-4 6.66 -4 7.32 -4 8 C-4.99 8.495 -4.99 8.495 -6 9 C-6.33 12.3 -6.66 15.6 -7 19 C10.82 19.33 28.64 19.66 47 20 C47 20.33 47 20.66 47 21 C39.18547248 21.02526563 31.37095542 21.04283105 23.55639648 21.05493164 C20.89558519 21.05997383 18.23477668 21.06680736 15.57397461 21.07543945 C11.75894484 21.08751009 7.94395156 21.09322929 4.12890625 21.09765625 C2.33206139 21.10539818 2.33206139 21.10539818 0.49891663 21.11329651 C-1.15268211 21.11340981 -1.15268211 21.11340981 -2.83764648 21.11352539 C-3.81249496 21.115746 -4.78734344 21.11796661 -5.79173279 21.12025452 C-8 21 -8 21 -9 20 C-9.61400898 15.57533732 -9.76219508 11.40908683 -9 7 C-6.72098637 4.18684255 -4.19017047 2.64566933 -1 1 C-0.67 0.67 -0.34 0.34 0 0 Z " fill="#5253CD" transform="translate(47,109)"/>
<path d="M0 0 C0.33 0.66 0.66 1.32 1 2 C19.81 1.505 19.81 1.505 39 1 C37 4 37 4 35.20297241 4.36076355 C34.47905304 4.35410172 33.75513367 4.34743988 33.00927734 4.34057617 C31.77822769 4.34023628 31.77822769 4.34023628 30.52230835 4.33988953 C29.63580597 4.32440567 28.74930359 4.30892181 27.8359375 4.29296875 C26.92872955 4.28872391 26.02152161 4.28447906 25.08682251 4.28010559 C22.18258268 4.26328133 19.2790309 4.2256226 16.375 4.1875 C14.40886417 4.17245799 12.44271749 4.15876875 10.4765625 4.14648438 C5.65077561 4.11336557 0.82550455 4.06155786 -4 4 C-4 7.3 -4 10.6 -4 14 C-4.33 14 -4.66 14 -5 14 C-5 10.37 -5 6.74 -5 3 C-3.35 2.67 -1.7 2.34 0 2 C0 1.34 0 0.68 0 0 Z " fill="#CECEF6" transform="translate(39,52)"/>
<path d="M0 0 C0.66 0.33 1.32 0.66 2 1 C1.67 1.66 1.34 2.32 1 3 C0.34 3 -0.32 3 -1 3 C-1.33 4.65 -1.66 6.3 -2 8 C5.75982262 7.90773879 13.51933217 7.80043376 21.27880859 7.68261719 C23.91905993 7.64431033 26.55936376 7.60946051 29.19970703 7.578125 C32.99270401 7.53251211 36.78533905 7.47451044 40.578125 7.4140625 C41.76053772 7.40251129 42.94295044 7.39096008 44.16119385 7.37905884 C45.8124527 7.3492543 45.8124527 7.3492543 47.49707031 7.31884766 C48.94935028 7.29886215 48.94935028 7.29886215 50.43096924 7.2784729 C53.01488941 7.14987028 53.01488941 7.14987028 55.15643311 5.91757202 C57 5 57 5 60 6 C58.35 6.33 56.7 6.66 55 7 C55 7.66 55 8.32 55 9 C34.21 9 13.42 9 -8 9 C-6.02 6.69 -4.04 4.38 -2 2 C-1.34 2 -0.68 2 0 2 C0 1.34 0 0.68 0 0 Z " fill="#BFC1F3" transform="translate(93,53)"/>
<path d="M0 0 C1.32 0.66 2.64 1.32 4 2 C2.44877329 3.4909849 0.88352332 4.96738912 -0.6875 6.4375 C-1.55761719 7.26121094 -2.42773438 8.08492187 -3.32421875 8.93359375 C-8.05336 12.58573349 -13.14998022 12.1391808 -18.92578125 12.09765625 C-20.04716743 12.09553383 -20.04716743 12.09553383 -21.19120789 12.09336853 C-23.56501365 12.08779764 -25.93872303 12.0752506 -28.3125 12.0625 C-29.92773301 12.05748123 -31.5429675 12.05291899 -33.15820312 12.04882812 C-37.10550555 12.03783775 -41.05273647 12.02059332 -45 12 C-45 11.67 -45 11.34 -45 11 C-33.12 10.67 -21.24 10.34 -9 10 C-8.67 8.68 -8.34 7.36 -8 6 C-5.99655902 3.51954926 -3.86220472 2.33569554 -1 1 C-0.67 0.67 -0.34 0.34 0 0 Z " fill="#FCFDF1" transform="translate(85,42)"/>
<path d="M0 0 C0.66 0.99 1.32 1.98 2 3 C1.67 3.99 1.34 4.98 1 6 C0.34 6 -0.32 6 -1 6 C-1 10.95 -1 15.9 -1 21 C-1.99 20.01 -2.98 19.02 -4 18 C-4.66 18 -5.32 18 -6 18 C-6 13.05 -6 8.1 -6 3 C-4.35 3 -2.7 3 -1 3 C-0.67 2.01 -0.34 1.02 0 0 Z " fill="#0403F4" transform="translate(144,68)"/>
<path d="M0 0 C2.64 0 5.28 0 8 0 C8 0.66 8 1.32 8 2 C8.99 2.33 9.98 2.66 11 3 C11.33 4.65 11.66 6.3 12 8 C15.32534757 9.10844919 17.62182575 8.84454356 21 8 C21 8.66 21 9.32 21 10 C20.38125 10.2475 19.7625 10.495 19.125 10.75 C16.64931313 12.20628639 16.04874998 13.37812506 15 16 C14.46375 14.9275 13.9275 13.855 13.375 12.75 C11.26215338 8.98791698 8.67804937 7.25698484 5 5 C5 4.34 5 3.68 5 3 C0.05 3 -4.9 3 -10 3 C-10 2.67 -10 2.34 -10 2 C-6.7 1.67 -3.4 1.34 0 1 C0 0.67 0 0.34 0 0 Z " fill="#DCDDF1" transform="translate(163,88)"/>
<path d="M0 0 C0.66 0.33 1.32 0.66 2 1 C1.690625 1.7425 1.38125 2.485 1.0625 3.25 C0.1905075 5.50692176 -0.47667007 7.6450153 -1 10 C0.32 10.33 1.64 10.66 3 11 C1.61211198 12.30020011 0.21430742 13.5898193 -1.1875 14.875 C-1.96480469 15.59429687 -2.74210937 16.31359375 -3.54296875 17.0546875 C-5.97689776 18.9817092 -8.07536646 20.01300111 -11 21 C-10.505 19.515 -10.505 19.515 -10 18 C-9.01 18 -8.02 18 -7 18 C-7 17.34 -7 16.68 -7 16 C-6.34 16 -5.68 16 -5 16 C-5 15.01 -5 14.02 -5 13 C-4.34 13 -3.68 13 -3 13 C-3.33 10.69 -3.66 8.38 -4 6 C-4.99 7.32 -5.98 8.64 -7 10 C-8.32 9.67 -9.64 9.34 -11 9 C-7.37 6.03 -3.74 3.06 0 0 Z " fill="#0A07DF" transform="translate(61,98)"/>
<path d="M0 0 C0.99 0.33 1.98 0.66 3 1 C3.3125 3.3125 3.3125 3.3125 3 6 C-0.73474635 8.8877081 -3.5228322 9.36173154 -8.17578125 9.29296875 C-9.91118164 9.2784668 -9.91118164 9.2784668 -11.68164062 9.26367188 C-13.47891602 9.2259668 -13.47891602 9.2259668 -15.3125 9.1875 C-17.1387793 9.16719727 -17.1387793 9.16719727 -19.00195312 9.14648438 C-22.00175345 9.11119261 -25.00064975 9.06188481 -28 9 C-28 8.67 -28 8.34 -28 8 C-20.08 7.67 -12.16 7.34 -4 7 C-11.92 6.67 -19.84 6.34 -28 6 C-28 5.67 -28 5.34 -28 5 C-18.76 4.67 -9.52 4.34 0 4 C0 3.34 0 2.68 0 2 C-0.66 1.67 -1.32 1.34 -2 1 C-1.34 0.67 -0.68 0.34 0 0 Z " fill="#F8FAF1" transform="translate(164,111)"/>
<path d="M0 0 C1.92578125 0.05078125 1.92578125 0.05078125 4.3125 0.3125 C5.48232422 0.43044922 5.48232422 0.43044922 6.67578125 0.55078125 C9.11641823 1.022501 10.88292189 1.70545114 13 3 C14.36952673 5.73905345 14.12621361 7.97087332 14 11 C13.67 11.66 13.34 12.32 13 13 C12.34 13 11.68 13 11 13 C10.34 11.68 9.68 10.36 9 9 C8.34 9 7.68 9 7 9 C6.34 8.01 5.68 7.02 5 6 C4.01 6 3.02 6 2 6 C2 4.68 2 3.36 2 2 C1.01 1.67 0.02 1.34 -1 1 C-0.67 0.67 -0.34 0.34 0 0 Z " fill="#0604F4" transform="translate(160,93)"/>
<path d="M0 0 C0.66 0.33 1.32 0.66 2 1 C2.10469338 6.75813575 1.74016701 12.29014022 1 18 C-2.16115776 16.63016497 -2.9927092 16.0109362 -5 13 C-5.57772436 7.88301282 -5.57772436 7.88301282 -5 5 C-2.5 2 -2.5 2 0 0 Z " fill="#FBFAF3" transform="translate(150,71)"/>
<path d="M0 0 C9.9 0 19.8 0 30 0 C30 2.64 30 5.28 30 8 C27.69 8 25.38 8 23 8 C23.66 6.68 24.32 5.36 25 4 C22.69 4 20.38 4 18 4 C18.66 3.34 19.32 2.68 20 2 C13.4 1.67 6.8 1.34 0 1 C0 0.67 0 0.34 0 0 Z " fill="#D53B3B" transform="translate(144,133)"/>
<path d="M0 0 C-0.33 2.31 -0.66 4.62 -1 7 C-1.6290625 7.06316406 -2.258125 7.12632813 -2.90625 7.19140625 C-9.36512602 8.11549243 -12.78888127 9.92829176 -17.30859375 14.63671875 C-17.86675781 15.08660156 -18.42492187 15.53648438 -19 16 C-19.99 15.67 -20.98 15.34 -22 15 C-19.93821926 13.24914666 -17.87560123 11.49929619 -15.8125 9.75 C-15.23435547 9.25886719 -14.65621094 8.76773438 -14.06054688 8.26171875 C-12.91538211 7.29124014 -11.76713452 6.32438669 -10.61572266 5.36132812 C-9.1678481 4.14142052 -7.74429639 2.89278105 -6.32421875 1.640625 C-4 0 -4 0 0 0 Z " fill="#EFF3F6" transform="translate(93,88)"/>
<path d="M0 0 C0.99 0.33 1.98 0.66 3 1 C-0.20907363 3.59374155 -3.54870604 5.37558749 -7.25 7.1875 C-8.48974453 7.79654698 -9.72932079 8.40593659 -10.96875 9.015625 C-11.61972656 9.33466797 -12.27070313 9.65371094 -12.94140625 9.98242188 C-15.10416513 11.05148959 -17.25601004 12.14036012 -19.40625 13.234375 C-20.13038086 13.60151611 -20.85451172 13.96865723 -21.60058594 14.34692383 C-23.01666985 15.06542074 -24.43142172 15.78654994 -25.84472656 16.51049805 C-30.77563011 19 -30.77563011 19 -33 19 C-33 18.34 -33 17.68 -33 17 C-31.73308493 16.32591692 -30.46129251 15.66099503 -29.1875 15 C-28.47980469 14.62875 -27.77210938 14.2575 -27.04296875 13.875 C-25 13 -25 13 -22 13 C-22 12.34 -22 11.68 -22 11 C-19.09399739 9.74335022 -17.20395416 9 -14 9 C-14 8.34 -14 7.68 -14 7 C-8.375 4 -8.375 4 -5 4 C-5 3.34 -5 2.68 -5 2 C-3.35 2 -1.7 2 0 2 C0 1.34 0 0.68 0 0 Z " fill="#2624BB" transform="translate(185,51)"/>
<path d="M0 0 C-1.32 1.65 -2.64 3.3 -4 5 C-3.46375 4.67 -2.9275 4.34 -2.375 4 C0.5391061 2.77300796 2.86867708 2.85766714 6 3 C3.06171403 5.50298434 0.82097239 6.46930939 -3 7 C-3 7.66 -3 8.32 -3 9 C-4.65 9.33 -6.3 9.66 -8 10 C-8.33 9.01 -8.66 8.02 -9 7 C-8.01 7 -7.02 7 -6 7 C-6 6.01 -6 5.02 -6 4 C-7.65 4 -9.3 4 -11 4 C-10.67 3.01 -10.34 2.02 -10 1 C-6.34742296 -0.62336757 -3.80637601 -1.46399077 0 0 Z " fill="#0604E7" transform="translate(174,51)"/>
<path d="M0 0 C5.83101175 5.5319855 5.83101175 5.5319855 6.16796875 10.453125 C6.2068101 16.01520576 6.15446259 20.82928979 4 26 C1.875 27.9375 1.875 27.9375 0 29 C0 28.01 0 27.02 0 26 C0.66 26 1.32 26 2 26 C2.930215 20.02004643 3.48758893 14.02900687 4 8 C3.01 8 2.02 8 1 8 C0.67 5.36 0.34 2.72 0 0 Z " fill="#221EBE" transform="translate(173,96)"/>
<path d="M0 0 C1.98 0 3.96 0 6 0 C6 6.93 6 13.86 6 21 C5.01 20.67 4.02 20.34 3 20 C2.67 18.35 2.34 16.7 2 15 C2.66 15 3.32 15 4 15 C3.67 13.35 3.34 11.7 3 10 C2.67 10 2.34 10 2 10 C2 7.36 2 4.72 2 2 C1.34 2 0.68 2 0 2 C0 1.34 0 0.68 0 0 Z " fill="#C8292B" transform="translate(194,133)"/>
<path d="M0 0 C2.0625 0.4375 2.0625 0.4375 4 1 C3.625 2.9375 3.625 2.9375 3 5 C2.01 5.495 2.01 5.495 1 6 C-0.04808041 7.97522846 -1.0520411 9.97481509 -2 12 C-3.32 12 -4.64 12 -6 12 C-6.3125 9.3125 -6.3125 9.3125 -6 6 C-3.5625 3.1875 -3.5625 3.1875 -1 1 C-0.67 0.67 -0.34 0.34 0 0 Z " fill="#0403EF" transform="translate(66,96)"/>
<path d="M0 0 C0 1.32 0 2.64 0 4 C-11.22 4.33 -22.44 4.66 -34 5 C-34 4.34 -34 3.68 -34 3 C-32.84999512 2.970271 -32.84999512 2.970271 -31.67675781 2.93994141 C-28.20082781 2.84464554 -24.72549494 2.73498402 -21.25 2.625 C-19.44015625 2.57859375 -19.44015625 2.57859375 -17.59375 2.53125 C-16.43359375 2.49257812 -15.2734375 2.45390625 -14.078125 2.4140625 C-13.00981445 2.3826416 -11.94150391 2.3512207 -10.84082031 2.31884766 C-6.67655932 1.85145982 -4.32681516 0 0 0 Z " fill="#FAFBFB" transform="translate(178,128)"/>
<path d="M0 0 C1.32 0 2.64 0 4 0 C4 5.28 4 10.56 4 16 C1 15 1 15 0 14 C-0.07271741 11.64686445 -0.08370868 9.29166332 -0.0625 6.9375 C-0.05347656 5.64714844 -0.04445312 4.35679687 -0.03515625 3.02734375 C-0.02355469 2.02832031 -0.01195312 1.02929688 0 0 Z " fill="#D00E0E" transform="translate(176,134)"/>
<path d="M0 0 C1.485 0.99 1.485 0.99 3 2 C3 3.32 3 4.64 3 6 C3.99 6 4.98 6 6 6 C6 6.99 6 7.98 6 9 C4.68 8.67 3.36 8.34 2 8 C2 10.64 2 13.28 2 16 C1.01 16 0.02 16 -1 16 C-1.02685095 13.52076199 -1.04676547 11.0418116 -1.0625 8.5625 C-1.07506836 7.50192383 -1.07506836 7.50192383 -1.08789062 6.41992188 C-1.09653588 4.61306441 -1.05220011 2.80612397 -1 1 C-0.67 0.67 -0.34 0.34 0 0 Z " fill="#E1080B" transform="translate(185,134)"/>
<path d="M0 0 C3.63 0 7.26 0 11 0 C11 1.32 11 2.64 11 4 C8.36 4.33 5.72 4.66 3 5 C2.67 5.99 2.34 6.98 2 8 C1.34 8 0.68 8 0 8 C0 5.36 0 2.72 0 0 Z " fill="#D52322" transform="translate(204,140)"/>
<path d="M0 0 C2.31 0.66 4.62 1.32 7 2 C5.5741914 5.45195767 3.90253666 7.1014256 0.875 9.25 C0.15054688 9.77078125 -0.57390625 10.2915625 -1.3203125 10.828125 C-1.87460938 11.21484375 -2.42890625 11.6015625 -3 12 C-2.31911019 9.08014819 -1.41898766 6.64877696 0 4 C-0.66 3.67 -1.32 3.34 -2 3 C-1.34 3 -0.68 3 0 3 C0 2.01 0 1.02 0 0 Z " fill="#F3F6F8" transform="translate(85,70)"/>
<path d="M0 0 C0 12.21 0 24.42 0 37 C-0.33 37 -0.66 37 -1 37 C-1 25.45 -1 13.9 -1 2 C-2.98 2.99 -4.96 3.98 -7 5 C-6.1875 3.0625 -6.1875 3.0625 -5 1 C-2 0 -2 0 0 0 Z " fill="#2C2FB4" transform="translate(95,84)"/>
<path d="M0 0 C0.99 0.99 1.98 1.98 3 3 C1.75023244 6.65316671 1.32901247 7.78065836 -2 10 C-2.99 10 -3.98 10 -5 10 C-5.33 8.02 -5.66 6.04 -6 4 C-4.02 3.34 -2.04 2.68 0 2 C0 1.34 0 0.68 0 0 Z " fill="#090AE1" transform="translate(86,83)"/>
<path d="M0 0 C0.66 0 1.32 0 2 0 C4.68655265 5.3731053 2.99998243 13.25010101 2 19 C1.34 19 0.68 19 0 19 C0 12.73 0 6.46 0 0 Z " fill="#FAFBF7" transform="translate(110,131)"/>
<path d="M0 0 C3.67056937 1.47797262 5.41085783 3.47615477 7.75 6.625 C8.67039063 7.85089844 8.67039063 7.85089844 9.609375 9.1015625 C10.29773438 10.04128906 10.29773438 10.04128906 11 11 C9.1875 11.625 9.1875 11.625 7 12 C6.01 11.34 5.02 10.68 4 10 C3.8125 6.875 3.8125 6.875 4 4 C3.34 4 2.68 4 2 4 C2 4.99 2 5.98 2 7 C1.34 7 0.68 7 0 7 C0 4.69 0 2.38 0 0 Z " fill="#F9E8E8" transform="translate(188,144)"/>
<path d="M0 0 C1.32 0 2.64 0 4 0 C4 0.99 4 1.98 4 3 C4.66 3 5.32 3 6 3 C6.33 2.01 6.66 1.02 7 0 C7.66 0.99 8.32 1.98 9 3 C11.19454681 3.57993699 11.19454681 3.57993699 13.625 3.6875 C14.44226563 3.75324219 15.25953125 3.81898438 16.1015625 3.88671875 C16.72804687 3.92410156 17.35453125 3.96148437 18 4 C18 4.33 18 4.66 18 5 C12.39 5 6.78 5 1 5 C0.34 3.68 -0.32 2.36 -1 1 C-0.67 0.67 -0.34 0.34 0 0 Z " fill="#F8EBE6" transform="translate(200,128)"/>
<path d="M0 0 C0.66 0.33 1.32 0.66 2 1 C1.67 1.66 1.34 2.32 1 3 C0.34 3 -0.32 3 -1 3 C-1.33 4.65 -1.66 6.3 -2 8 C2.29 8 6.58 8 11 8 C11 8.33 11 8.66 11 9 C4.73 9 -1.54 9 -8 9 C-6.02 6.69 -4.04 4.38 -2 2 C-1.34 2 -0.68 2 0 2 C0 1.34 0 0.68 0 0 Z " fill="#BCBEF3" transform="translate(93,53)"/>
<path d="M0 0 C1.98 0.99 1.98 0.99 4 2 C4 2.99 4 3.98 4 5 C3.34 4.34 2.68 3.68 2 3 C1.67 7.62 1.34 12.24 1 17 C1.99 17 2.98 17 4 17 C4.33 15.68 4.66 14.36 5 13 C5.33 14.98 5.66 16.96 6 19 C4.02 19 2.04 19 0 19 C0 12.73 0 6.46 0 0 Z " fill="#C14B4E" transform="translate(114,133)"/>
<path d="M0 0 C0.66 0.33 1.32 0.66 2 1 C1.67 1.99 1.34 2.98 1 4 C0.34 4 -0.32 4 -1 4 C-1 4.66 -1 5.32 -1 6 C-1.928125 6.12375 -1.928125 6.12375 -2.875 6.25 C-3.57625 6.4975 -4.2775 6.745 -5 7 C-5.268125 7.639375 -5.53625 8.27875 -5.8125 8.9375 C-7 11 -7 11 -10.625 12.25 C-11.73875 12.4975 -12.8525 12.745 -14 13 C-10.92617601 8.5897308 -7.17371824 5.6512445 -2.92578125 2.453125 C-1.09616822 1.14234674 -1.09616822 1.14234674 0 0 Z " fill="#1E1EC0" transform="translate(91,74)"/>
<path d="M0 0 C0.33 0 0.66 0 1 0 C0.96519531 1.73636719 0.96519531 1.73636719 0.9296875 3.5078125 C0.91091852 5.04686851 0.89271954 6.58593155 0.875 8.125 C0.85824219 8.88554688 0.84148437 9.64609375 0.82421875 10.4296875 C0.78453754 15.03270731 1.24092423 18.66464004 3 23 C-0.16242675 20.41255993 -1.08288297 17.95065796 -2 14 C-2.69773463 4.04660194 -2.69773463 4.04660194 0 0 Z " fill="#2A25B4" transform="translate(137,71)"/>
<path d="M0 0 C1.32 0.66 2.64 1.32 4 2 C0.7 4.97 -2.6 7.94 -6 11 C-6.33 10.01 -6.66 9.02 -7 8 C-6.34 8 -5.68 8 -5 8 C-5 7.34 -5 6.68 -5 6 C-5.66 6 -6.32 6 -7 6 C-7 5.34 -7 4.68 -7 4 C-5.824375 3.566875 -5.824375 3.566875 -4.625 3.125 C-1.90328368 2.15087746 -1.90328368 2.15087746 0 0 Z " fill="#EBEBF7" transform="translate(85,42)"/>
<path d="M0 0 C4.95 0 9.9 0 15 0 C15 0.99 15 1.98 15 3 C11.37 3 7.74 3 4 3 C4 2.34 4 1.68 4 1 C3.01 1 2.02 1 1 1 C0.67 1.99 0.34 2.98 0 4 C0 2.68 0 1.36 0 0 Z " fill="#BE181C" transform="translate(203,134)"/>
<path d="M0 0 C0.66 0.33 1.32 0.66 2 1 C1.67 1.66 1.34 2.32 1 3 C0.34 3 -0.32 3 -1 3 C-1 3.66 -1 4.32 -1 5 C-10.24 5 -19.48 5 -29 5 C-29 4.67 -29 4.34 -29 4 C-28.29915283 3.98541748 -27.59830566 3.97083496 -26.8762207 3.95581055 C-23.68776991 3.88114513 -20.50034487 3.78454525 -17.3125 3.6875 C-16.20970703 3.66494141 -15.10691406 3.64238281 -13.97070312 3.61914062 C-12.3706543 3.5659668 -12.3706543 3.5659668 -10.73828125 3.51171875 C-9.75899658 3.48553467 -8.77971191 3.45935059 -7.77075195 3.43237305 C-4.59966598 2.93752828 -2.69982708 1.67434068 0 0 Z " fill="#0E0AB9" transform="translate(165,117)"/>
<path d="M0 0 C0.33 0 0.66 0 1 0 C1 6.27 1 12.54 1 19 C2.98 19 4.96 19 7 19 C7 19.33 7 19.66 7 20 C5.72125 20.061875 4.4425 20.12375 3.125 20.1875 C2.04605469 20.23970703 2.04605469 20.23970703 0.9453125 20.29296875 C0.30335937 20.19628906 -0.33859375 20.09960938 -1 20 C-1.66 19.01 -2.32 18.02 -3 17 C-2.34 17 -1.68 17 -1 17 C-0.67 11.39 -0.34 5.78 0 0 Z " fill="#F5D4D5" transform="translate(113,133)"/>
<path d="M0 0 C0.433125 0.9590625 0.433125 0.9590625 0.875 1.9375 C1.82823451 4.15206079 1.82823451 4.15206079 4 5 C4 3.35 4 1.7 4 0 C6.64 0 9.28 0 12 0 C12.33 0.66 12.66 1.32 13 2 C10.36 1.67 7.72 1.34 5 1 C5.33 1.66 5.66 2.32 6 3 C6.039992 4.99960012 6.04346799 7.00047242 6 9 C1.79373966 7.49776416 0.26099979 4.71449966 -2 1 C-1.34 0.67 -0.68 0.34 0 0 Z " fill="#F7CECB" transform="translate(189,132)"/>
<path d="M0 0 C1.32 0.33 2.64 0.66 4 1 C4 1.66 4 2.32 4 3 C4.66 3 5.32 3 6 3 C6 3.99 6 4.98 6 6 C6.66 6 7.32 6 8 6 C7.67 8.97 7.34 11.94 7 15 C5.68 14.67 4.36 14.34 3 14 C3.33 13.67 3.66 13.34 4 13 C4.54699679 7.13017032 4.54699679 7.13017032 2 2 C1.34 1.34 0.68 0.68 0 0 Z " fill="#2723BE" transform="translate(164,101)"/>
<path d="M0 0 C1.32 0.33 2.64 0.66 4 1 C4 1.66 4 2.32 4 3 C8.95 3 13.9 3 19 3 C19 3.66 19 4.32 19 5 C20.65 5.66 22.3 6.32 24 7 C23.01 7.33 22.02 7.66 21 8 C20.195625 7.54625 19.39125 7.0925 18.5625 6.625 C14.20302901 4.63646937 10.44913831 4.46146391 5.70703125 4.2109375 C3 4 3 4 0 3 C0 2.01 0 1.02 0 0 Z " fill="#2A26B6" transform="translate(149,88)"/>
<path d="M0 0 C0.99 0 1.98 0 3 0 C3.66 1.32 4.32 2.64 5 4 C5.99 3.01 6.98 2.02 8 1 C8 2.65 8 4.3 8 6 C7.34 6 6.68 6 6 6 C6 6.99 6 7.98 6 9 C5.34 9 4.68 9 4 9 C3.731875 8.360625 3.46375 7.72125 3.1875 7.0625 C2.11332248 4.66868314 2.11332248 4.66868314 -1 4 C-0.67 2.68 -0.34 1.36 0 0 Z " fill="#0704E1" transform="translate(167,116)"/>
<path d="M0 0 C-3.88172004 2.72065584 -6.46002175 3.36265978 -11.17578125 3.29296875 C-12.91118164 3.2784668 -12.91118164 3.2784668 -14.68164062 3.26367188 C-16.47891602 3.2259668 -16.47891602 3.2259668 -18.3125 3.1875 C-20.1387793 3.16719727 -20.1387793 3.16719727 -22.00195312 3.14648438 C-25.00175345 3.11119261 -28.00064975 3.06188481 -31 3 C-31 2.67 -31 2.34 -31 2 C-22.75 2 -14.5 2 -6 2 C-6 1.34 -6 0.68 -6 0 C-3.50907189 -1.24546405 -2.58919267 -0.7767578 0 0 Z " fill="#DCDAF9" transform="translate(167,117)"/>
<path d="M0 0 C0.66 0.33 1.32 0.66 2 1 C2 1.99 2 2.98 2 4 C0.7934375 4.309375 0.7934375 4.309375 -0.4375 4.625 C-1.283125 5.07875 -2.12875 5.5325 -3 6 C-3.89830839 9.05272465 -3.89830839 9.05272465 -4 12 C-3.01 12.33 -2.02 12.66 -1 13 C-1 13.99 -1 14.98 -1 16 C-0.34 16 0.32 16 1 16 C0.67 16.66 0.34 17.32 0 18 C-4.66836735 14.26530612 -4.66836735 14.26530612 -5.5078125 11.0625 C-5.74890103 6.8193418 -5.31390676 5.37668811 -2.5 2 C-1.675 1.34 -0.85 0.68 0 0 Z " fill="#CECFF3" transform="translate(150,71)"/>
<path d="M0 0 C0.99 0 1.98 0 3 0 C1.95125002 2.62187494 1.35068687 3.79371361 -1.125 5.25 C-1.74375 5.4975 -2.3625 5.745 -3 6 C-3 6.66 -3 7.32 -3 8 C-4.53125 9.2890625 -4.53125 9.2890625 -6.5 10.625 C-7.1496875 11.07101563 -7.799375 11.51703125 -8.46875 11.9765625 C-8.9740625 12.31429687 -9.479375 12.65203125 -10 13 C-10 12.01 -10 11.02 -10 10 C-9.34 10 -8.68 10 -8 10 C-8.33 8.68 -8.66 7.36 -9 6 C-8.01 6.33 -7.02 6.66 -6 7 C-5.38125 6.21625 -4.7625 5.4325 -4.125 4.625 C-2 2 -2 2 0 0 Z " fill="#1B18BF" transform="translate(96,47)"/>
<path d="M0 0 C0.99 0 1.98 0 3 0 C3 2.31 3 4.62 3 7 C1.02 7 -0.96 7 -3 7 C-2.25 2.25 -2.25 2.25 0 0 Z " fill="#F7C5C3" transform="translate(146,137)"/>
<path d="M0 0 C0.3125 2.3125 0.3125 2.3125 0 5 C-3.27178817 7.63560713 -4.72068147 8 -9 8 C-7.89112199 4.67336597 -7.28198895 4.21086541 -4.5 2.3125 C-3.8709375 1.87550781 -3.241875 1.43851562 -2.59375 0.98828125 C-1 0 -1 0 0 0 Z " fill="#E7EBF7" transform="translate(61,112)"/>
<path d="M0 0 C0.66 0.33 1.32 0.66 2 1 C1.67 1.33 1.34 1.66 1 2 C1.66 2.66 2.32 3.32 3 4 C0 6 0 6 -3 6 C-3.33 6.99 -3.66 7.98 -4 9 C-5.32 8.34 -6.64 7.68 -8 7 C-5.36 4.69 -2.72 2.38 0 0 Z " fill="#DDE1F5" transform="translate(69,104)"/>
<path d="M0 0 C1.32 0.33 2.64 0.66 4 1 C3.67 1.33 3.34 1.66 3 2 C2.58546287 8.3149985 2.58546287 8.3149985 5 14 C3.0625 13.625 3.0625 13.625 1 13 C-0.32229189 10.35541621 -0.09677194 8.32238699 -0.0625 5.375 C-0.05347656 4.37210937 -0.04445312 3.36921875 -0.03515625 2.3359375 C-0.02355469 1.56507812 -0.01195312 0.79421875 0 0 Z " fill="#1C19C6" transform="translate(143,74)"/>
<path d="M0 0 C0.66 0.33 1.32 0.66 2 1 C0.68 1.33 -0.64 1.66 -2 2 C-2 3.32 -2 4.64 -2 6 C-5.63 6.33 -9.26 6.66 -13 7 C-10.35787411 5.23858274 -7.7572236 3.76181302 -4.9375 2.3125 C-3.62072266 1.62607422 -3.62072266 1.62607422 -2.27734375 0.92578125 C-1.52582031 0.62027344 -0.77429688 0.31476562 0 0 Z " fill="#2D28C1" transform="translate(161,54)"/>
<path d="M0 0 C2 1 2 1 4 4 C3.34 4.66 2.68 5.32 2 6 C1.3574765 8.06874034 1.3574765 8.06874034 1 10 C2.65 10 4.3 10 6 10 C6 10.33 6 10.66 6 11 C4.02 11 2.04 11 0 11 C-0.33 9.02 -0.66 7.04 -1 5 C-1.99 5.495 -1.99 5.495 -3 6 C-2.42655063 3.13275314 -2.1385485 2.1385485 0 0 Z " fill="#CB3734" transform="translate(142,134)"/>
<path d="M0 0 C0.66 0.33 1.32 0.66 2 1 C-0.06584207 5.64814467 -2.66513654 7.19371126 -7.0625 9.30078125 C-9 10 -9 10 -12 10 C-8.04 6.7 -4.08 3.4 0 0 Z " fill="#2422C2" transform="translate(75,87)"/>
<path d="M0 0 C2 2 2 2 2.1953125 4.8203125 C2.16050781 6.45613281 2.16050781 6.45613281 2.125 8.125 C2.10695312 9.22070312 2.08890625 10.31640625 2.0703125 11.4453125 C2.04710937 12.28835937 2.02390625 13.13140625 2 14 C1.34 14 0.68 14 0 14 C0 13.01 0 12.02 0 11 C-0.66 11 -1.32 11 -2 11 C-2 10.01 -2 9.02 -2 8 C-1.34 8 -0.68 8 0 8 C0 5.36 0 2.72 0 0 Z " fill="#F4ACAC" transform="translate(174,133)"/>
<path d="M0 0 C0.66 0 1.32 0 2 0 C2 5.94 2 11.88 2 18 C1.67 18 1.34 18 1 18 C1 13.71 1 9.42 1 5 C-0.32 4.67 -1.64 4.34 -3 4 C-1.625 2 -1.625 2 0 0 Z " fill="#C04144" transform="translate(133,133)"/>
<path d="M0 0 C0.66 0 1.32 0 2 0 C2 0.66 2 1.32 2 2 C2.99 2 3.98 2 5 2 C5.33 3.65 5.66 5.3 6 7 C5.34 6.67 4.68 6.34 4 6 C4 5.34 4 4.68 4 4 C3.34 4 2.68 4 2 4 C2 4.66 2 5.32 2 6 C0.68 6 -0.64 6 -2 6 C-2 4.68 -2 3.36 -2 2 C-1.34 2 -0.68 2 0 2 C0 1.34 0 0.68 0 0 Z " fill="#F7EBE8" transform="translate(180,126)"/>
<path d="M0 0 C0.99 0.33 1.98 0.66 3 1 C2.34 1 1.68 1 1 1 C1 1.66 1 2.32 1 3 C-0.95585325 4.00484204 -2.91476237 5.00373805 -4.875 6 C-5.96554688 6.556875 -7.05609375 7.11375 -8.1796875 7.6875 C-11 9 -11 9 -13 9 C-13 8.34 -13 7.68 -13 7 C-11.73308493 6.32591692 -10.46129251 5.66099503 -9.1875 5 C-8.47980469 4.62875 -7.77210938 4.2575 -7.04296875 3.875 C-5 3 -5 3 -2 3 C-2 2.34 -2 1.68 -2 1 C-1.34 0.67 -0.68 0.34 0 0 Z " fill="#1310B5" transform="translate(165,61)"/>
<path d="M0 0 C0.33 0 0.66 0 1 0 C1 3.96 1 7.92 1 12 C-1.475 11.01 -1.475 11.01 -4 10 C-4.33 9.01 -4.66 8.02 -5 7 C-3.35 7 -1.7 7 0 7 C0 4.69 0 2.38 0 0 Z " fill="#EA0909" transform="translate(197,136)"/>
<path d="M0 0 C0.66 0.33 1.32 0.66 2 1 C-3.94 6.445 -3.94 6.445 -10 12 C-10.99 11.67 -11.98 11.34 -13 11 C-8.71 7.37 -4.42 3.74 0 0 Z " fill="#D2D5F7" transform="translate(84,92)"/>
<path d="M0 0 C2.64 0 5.28 0 8 0 C7.34 1.32 6.68 2.64 6 4 C4.02 4 2.04 4 0 4 C0 2.68 0 1.36 0 0 Z " fill="#F4A3A2" transform="translate(161,137)"/>
<path d="M0 0 C6.6 0 13.2 0 20 0 C20 0.33 20 0.66 20 1 C15.05 1.33 10.1 1.66 5 2 C5 2.33 5 2.66 5 3 C3.35 3 1.7 3 0 3 C0 2.01 0 1.02 0 0 Z " fill="#C50D0A" transform="translate(144,134)"/>
<path d="M0 0 C-3.3 2.64 -6.6 5.28 -10 8 C-10 7.01 -10 6.02 -10 5 C-9.34 5 -8.68 5 -8 5 C-8 4.34 -8 3.68 -8 3 C-8.66 2.67 -9.32 2.34 -10 2 C-8.68 2 -7.36 2 -6 2 C-6 1.34 -6 0.68 -6 0 C-3 -1 -3 -1 0 0 Z " fill="#201FC2" transform="translate(83,94)"/>
<path d="M0 0 C2 2 2 2 2.1953125 4.1640625 C2.16050781 5.38222656 2.16050781 5.38222656 2.125 6.625 C2.10695312 7.44226563 2.08890625 8.25953125 2.0703125 9.1015625 C2.04710937 9.72804687 2.02390625 10.35453125 2 11 C1.01 11 0.02 11 -1 11 C-1.14285714 3.57142857 -1.14285714 3.57142857 0 0 Z " fill="#E50809" transform="translate(151,139)"/>
<path d="M0 0 C1.485 0.99 1.485 0.99 3 2 C4.32 2 5.64 2 7 2 C6 5 6 5 4 6 C3.01 7.485 3.01 7.485 2 9 C1.01 8.01 0.02 7.02 -1 6 C-0.34 6 0.32 6 1 6 C0.67 4.02 0.34 2.04 0 0 Z " fill="#D62C2B" transform="translate(120,139)"/>
<path d="M0 0 C0.99 0.99 1.98 1.98 3 3 C2.67 3.33 2.34 3.66 2 4 C1.76346477 6.52596259 1.57826308 9.03107207 1.4375 11.5625 C1.39431641 12.27341797 1.35113281 12.98433594 1.30664062 13.71679688 C1.20028223 15.47761912 1.09961154 17.2387832 1 19 C1.99 19.33 2.98 19.66 4 20 C2.68 20 1.36 20 0 20 C0 13.4 0 6.8 0 0 Z " fill="#B21B1D" transform="translate(183,131)"/>
<path d="M0 0 C0.99 0.33 1.98 0.66 3 1 C2.67 1.66 2.34 2.32 2 3 C2.66 3.33 3.32 3.66 4 4 C3.01 4.99 2.02 5.98 1 7 C-0.32 6.34 -1.64 5.68 -3 5 C-2.01 3.35 -1.02 1.7 0 0 Z " fill="#070AE3" transform="translate(49,108)"/>
<path d="M0 0 C-1.62017842 1.33918806 -3.24629343 2.6711969 -4.875 4 C-6.23238281 5.11375 -6.23238281 5.11375 -7.6171875 6.25 C-10 8 -10 8 -12 8 C-11.67 7.01 -11.34 6.02 -11 5 C-10.01 5 -9.02 5 -8 5 C-8 4.34 -8 3.68 -8 3 C-7.34 3 -6.68 3 -6 3 C-6 2.01 -6 1.02 -6 0 C-3 -1 -3 -1 0 0 Z " fill="#2523C1" transform="translate(62,111)"/>
<path d="M0 0 C-5.00932754 3.00559652 -8.32723489 3.29341888 -14 3 C-9.5718927 0.52025991 -4.9510693 -1.65035643 0 0 Z " fill="#110EBC" transform="translate(172,126)"/>
<path d="M0 0 C0.66 0.33 1.32 0.66 2 1 C1.21625 1.61875 0.4325 2.2375 -0.375 2.875 C-2.96837647 4.89858661 -2.96837647 4.89858661 -5 7 C-7.625 7.125 -7.625 7.125 -10 7 C-7.20283196 3.70921407 -3.80471422 1.93694542 0 0 Z " fill="#CDCEF3" transform="translate(202,44)"/>
<path d="M0 0 C0.66 0 1.32 0 2 0 C2 2.97 2 5.94 2 9 C1.01 9 0.02 9 -1 9 C-1.125 2.25 -1.125 2.25 0 0 Z " fill="#E70A0C" transform="translate(159,140)"/>
<path d="M0 0 C0.33 0 0.66 0 1 0 C1 3.3 1 6.6 1 10 C-1.64 10 -4.28 10 -7 10 C-7 9.34 -7 8.68 -7 8 C-5.02 7.67 -3.04 7.34 -1 7 C-0.67 4.69 -0.34 2.38 0 0 Z " fill="#CA171F" transform="translate(149,137)"/>
<path d="M0 0 C0.33 0.66 0.66 1.32 1 2 C1.66 2.33 2.32 2.66 3 3 C0.36 4.98 -2.28 6.96 -5 9 C-4.67 7.68 -4.34 6.36 -4 5 C-3.34 4.67 -2.68 4.34 -2 4 C-2.33 3.01 -2.66 2.02 -3 1 C-2.01 0.67 -1.02 0.34 0 0 Z " fill="#E8ECF7" transform="translate(49,103)"/>
<path d="M0 0 C1.65 0 3.3 0 5 0 C4.6875 1.875 4.6875 1.875 4 4 C1 6 1 6 -2 6 C-2 4 -2 4 0 2 C0 1.34 0 0.68 0 0 Z " fill="#110DB7" transform="translate(200,40)"/>
<path d="M0 0 C0.99 0 1.98 0 3 0 C3 0.66 3 1.32 3 2 C3.99 2.33 4.98 2.66 6 3 C5.01 3 4.02 3 3 3 C2.71125 3.639375 2.4225 4.27875 2.125 4.9375 C1 7 1 7 -1 8 C-1.04241723 5.66705225 -1.04092937 3.33297433 -1 1 C-0.67 0.67 -0.34 0.34 0 0 Z " fill="#F3F4FA" transform="translate(90,35)"/>
<path d="M0 0 C2.62187494 1.04874998 3.79371361 1.64931313 5.25 4.125 C5.4975 4.74375 5.745 5.3625 6 6 C5.34 6 4.68 6 4 6 C4 5.34 4 4.68 4 4 C3.34 4 2.68 4 2 4 C2 4.99 2 5.98 2 7 C1.34 7 0.68 7 0 7 C0 4.69 0 2.38 0 0 Z " fill="#F6CBC9" transform="translate(188,144)"/>
<path d="M0 0 C3.875 0.875 3.875 0.875 5 2 C5.04063832 3.66617115 5.042721 5.33388095 5 7 C3.0625 6.3125 3.0625 6.3125 1 5 C0.25 2.375 0.25 2.375 0 0 Z " fill="#160FD5" transform="translate(139,90)"/>
<path d="M0 0 C1.65 0 3.3 0 5 0 C4.67 4.29 4.34 8.58 4 13 C3.67 13 3.34 13 3 13 C3 10.36 3 7.72 3 5 C2.01 4.67 1.02 4.34 0 4 C0.99 4 1.98 4 3 4 C2.01 2.68 1.02 1.36 0 0 Z " fill="#FAFCF2" transform="translate(88,131)"/>
<path d="M0 0 C1.32 0.66 2.64 1.32 4 2 C1.03 4.475 1.03 4.475 -2 7 C-2.33 5.68 -2.66 4.36 -3 3 C-2.34 3 -1.68 3 -1 3 C-0.67 2.01 -0.34 1.02 0 0 Z " fill="#E1E6F2" transform="translate(68,88)"/>
<path d="M0 0 C1.98 0.99 1.98 0.99 4 2 C4 2.66 4 3.32 4 4 C4.99 4.33 5.98 4.66 7 5 C5.02 5.33 3.04 5.66 1 6 C0.67 4.02 0.34 2.04 0 0 Z " fill="#F2BBB4" transform="translate(119,146)"/>
<path d="M0 0 C7.38461538 -0.49230769 7.38461538 -0.49230769 10.5 2 C10.995 2.66 11.49 3.32 12 4 C9.03 3.505 9.03 3.505 6 3 C6 2.34 6 1.68 6 1 C4.02 1 2.04 1 0 1 C0 0.67 0 0.34 0 0 Z " fill="#D2D2F1" transform="translate(154,100)"/>
<path d="M0 0 C3.3 0 6.6 0 10 0 C10.33 1.32 10.66 2.64 11 4 C7.37 3.01 3.74 2.02 0 1 C0 0.67 0 0.34 0 0 Z " fill="#0D08C8" transform="translate(156,98)"/>
<path d="M0 0 C1.45792884 -0.05399736 2.91642712 -0.09279177 4.375 -0.125 C5.18710938 -0.14820312 5.99921875 -0.17140625 6.8359375 -0.1953125 C9 0 9 0 11 2 C9.63875 1.9690625 9.63875 1.9690625 8.25 1.9375 C5.57327412 1.9889755 3.53011948 2.2215017 1 3 C0.67 2.01 0.34 1.02 0 0 Z " fill="#0502E0" transform="translate(155,92)"/>
<path d="M0 0 C-2.39763185 2.39763185 -3.33273498 2.34280586 -6.625 2.625 C-7.44226563 2.69976562 -8.25953125 2.77453125 -9.1015625 2.8515625 C-9.72804687 2.90054688 -10.35453125 2.94953125 -11 3 C-7.47728558 -0.71232228 -4.97713607 -1.59979374 0 0 Z " fill="#231FC9" transform="translate(174,51)"/>
<path d="M0 0 C0.66 0.33 1.32 0.66 2 1 C0.35 2.98 -1.3 4.96 -3 7 C-4.32 6.67 -5.64 6.34 -7 6 C-4.69 4.02 -2.38 2.04 0 0 Z " fill="#3736C2" transform="translate(57,101)"/>
<path d="M0 0 C1.98 0 3.96 0 6 0 C1.375 4.875 1.375 4.875 -2 6 C-1.34 4.02 -0.68 2.04 0 0 Z " fill="#1A1AC2" transform="translate(66,102)"/>
<path d="M0 0 C0 2.64 0 5.28 0 8 C-0.33 8 -0.66 8 -1 8 C-1 6.02 -1 4.04 -1 2 C-2.98 2.99 -4.96 3.98 -7 5 C-6.1875 3.0625 -6.1875 3.0625 -5 1 C-2 0 -2 0 0 0 Z " fill="#2727C2" transform="translate(95,84)"/>
<path d="M0 0 C0.66 0.33 1.32 0.66 2 1 C1.67 1.66 1.34 2.32 1 3 C0.34 3 -0.32 3 -1 3 C-1.33 4.65 -1.66 6.3 -2 8 C-2.99 8 -3.98 8 -5 8 C-4.75 6.125 -4.75 6.125 -4 4 C-1.9375 2.75 -1.9375 2.75 0 2 C0 1.34 0 0.68 0 0 Z " fill="#D4D7F2" transform="translate(93,53)"/>
<path d="M0 0 C0.66 0.33 1.32 0.66 2 1 C1.375 2.875 1.375 2.875 0 5 C-3.125 6.25 -3.125 6.25 -6 7 C-4.02 4.69 -2.04 2.38 0 0 Z " fill="#3331BD" transform="translate(85,46)"/>
<path d="M0 0 C1.32 0 2.64 0 4 0 C4 0.66 4 1.32 4 2 C3.34 2 2.68 2 2 2 C1.67 4.31 1.34 6.62 1 9 C0.67 9 0.34 9 0 9 C0 6.03 0 3.06 0 0 Z " fill="#F8F7F0" transform="translate(136,133)"/>
<path d="M0 0 C0.66 0.33 1.32 0.66 2 1 C0.875 3.4375 0.875 3.4375 -1 6 C-4.1875 6.8125 -4.1875 6.8125 -7 7 C-4.66666667 4.66666667 -2.33333333 2.33333333 0 0 Z " fill="#3031C5" transform="translate(47,109)"/>
<path d="M0 0 C0.66 0 1.32 0 2 0 C2.33 1.32 2.66 2.64 3 4 C4.65 4 6.3 4 8 4 C8 4.33 8 4.66 8 5 C4.7 4.67 1.4 4.34 -2 4 C-1.34 2.68 -0.68 1.36 0 0 Z " fill="#0701DD" transform="translate(146,93)"/>
<path d="M0 0 C1.32 0.66 2.64 1.32 4 2 C1.03 4.475 1.03 4.475 -2 7 C-2.33 6.01 -2.66 5.02 -3 4 C-2.01 4 -1.02 4 0 4 C0 2.68 0 1.36 0 0 Z " fill="#D8D7F7" transform="translate(76,82)"/>
<path d="M0 0 C1.65 0 3.3 0 5 0 C4.01 1.98 3.02 3.96 2 6 C0.68 5.67 -0.64 5.34 -2 5 C-1.01 4.67 -0.02 4.34 1 4 C0.67 2.68 0.34 1.36 0 0 Z " fill="#F4FAF2" transform="translate(80,76)"/>
<path d="M0 0 C-1.125 1.5 -1.125 1.5 -3 3 C-6.1875 3.1875 -6.1875 3.1875 -9 3 C-8 1 -8 1 -5.0625 -0.1875 C-2 -1 -2 -1 0 0 Z " fill="#CCCBEF" transform="translate(169,64)"/>
<path d="M0 0 C-5.75 4 -5.75 4 -8 4 C-8 3.01 -8 2.02 -8 1 C-3.375 -1.125 -3.375 -1.125 0 0 Z " fill="#211EBE" transform="translate(198,47)"/>
<path d="M0 0 C2.475 0.495 2.475 0.495 5 1 C5 2.65 5 4.3 5 6 C4.01 5.67 3.02 5.34 2 5 C2 3.68 2 2.36 2 1 C1.34 0.67 0.68 0.34 0 0 Z " fill="#FBF7F4" transform="translate(163,146)"/>
<path d="M0 0 C0.66 0.33 1.32 0.66 2 1 C1.54625 1.556875 1.0925 2.11375 0.625 2.6875 C-1.03733768 5.05313439 -2.02144543 7.29015658 -3 10 C-3.33 9.34 -3.66 8.68 -4 8 C-1.48571429 1.48571429 -1.48571429 1.48571429 0 0 Z " fill="#1817D0" transform="translate(61,98)"/>
<path d="M0 0 C0.99 0.33 1.98 0.66 3 1 C0.69 2.65 -1.62 4.3 -4 6 C-3 2 -3 2 0 0 Z " fill="#CED6F7" transform="translate(86,76)"/>
</svg>
