<?xml version="1.0" encoding="UTF-8"?>
<svg version="1.1" xmlns="http://www.w3.org/2000/svg" width="112" height="104">
<path d="M0 0 C1.1915847 -0.00810448 1.1915847 -0.00810448 2.40724182 -0.01637268 C5.01252388 -0.02880111 7.61668837 -0.01241349 10.22192383 0.00561523 C12.0407975 0.00546015 13.85967151 0.00396969 15.67854309 0.00120544 C19.48050641 -0.00017575 23.28209117 0.01233614 27.08398438 0.03515625 C31.95658177 0.06360089 36.82855347 0.0607834 41.70119762 0.04806614 C45.45271654 0.04111316 49.20409076 0.04889285 52.9555912 0.06132317 C54.7525305 0.0658371 56.54948532 0.06617497 58.34642601 0.06225777 C60.85497322 0.05934772 63.36265582 0.07583985 65.87109375 0.09765625 C66.98316696 0.09090378 66.98316696 0.09090378 68.1177063 0.08401489 C71.28039002 0.12972224 73.4322163 0.3251631 76.20497131 1.90814209 C77.74145508 3.50170898 77.74145508 3.50170898 78.19555664 5.40283203 C78.17460938 6.09932861 78.15366211 6.7958252 78.13208008 7.51342773 C78.11918945 8.27075195 78.10629883 9.02807617 78.09301758 9.80834961 C78.05950195 10.5940332 78.02598633 11.3797168 77.99145508 12.18920898 C77.9734082 12.98649414 77.95536133 13.7837793 77.93676758 14.60522461 C77.88967755 16.57123347 77.81793406 18.53662392 77.74145508 20.50170898 C80.05145508 20.50170898 82.36145508 20.50170898 84.74145508 20.50170898 C84.74145508 48.22170898 84.74145508 75.94170898 84.74145508 104.50170898 C61.4828022 104.5819266 61.4828022 104.5819266 51.5715332 104.59936523 C44.80758529 104.61132259 38.0436915 104.62547119 31.27978516 104.65258789 C25.82683405 104.67431222 20.37394098 104.68627679 14.92094994 104.69146347 C12.84013137 104.69515995 10.75931598 104.70237817 8.67852211 104.7131691 C5.76494089 104.72767844 2.8515998 104.72968714 -0.06201172 104.72875977 C-0.92300476 104.73595032 -1.7839978 104.74314087 -2.67108154 104.75054932 C-6.93843625 104.73584349 -10.43272337 104.63971905 -14.25854492 102.50170898 C-15.47548368 100.06783146 -15.57814389 98.08332053 -15.82104492 95.37670898 C-15.90483398 94.46663086 -15.98862305 93.55655273 -16.07495117 92.61889648 C-16.13553711 91.92022461 -16.19612305 91.22155273 -16.25854492 90.50170898 C-16.72905273 90.86264648 -17.19956055 91.22358398 -17.68432617 91.59545898 C-18.61825195 92.29155273 -18.61825195 92.29155273 -19.57104492 93.00170898 C-20.18592773 93.46577148 -20.80081055 93.92983398 -21.43432617 94.40795898 C-23.25854492 95.50170898 -23.25854492 95.50170898 -26.25854492 95.50170898 C-26.51386489 84.81858659 -26.70908695 74.13619417 -26.82847881 63.45063782 C-26.88579527 58.48820955 -26.9634711 53.52787404 -27.08837891 48.56665039 C-27.2082609 43.77483723 -27.27374136 38.98503087 -27.3021946 34.1918335 C-27.32245825 32.36717124 -27.36203449 30.54261416 -27.42157555 28.71881104 C-27.86754894 14.48690742 -27.86754894 14.48690742 -23.98257446 9.69360352 C-21.15260788 7.58576884 -18.43212752 6.03527696 -15.25854492 4.50170898 C-14.15280121 3.7888121 -13.0470575 3.07591522 -11.9078064 2.34141541 C-8.04921891 0.13324401 -4.37272802 -0.05749334 0 0 Z " fill="#E51050" transform="translate(26.258544921875,-0.501708984375)"/>
<path d="M0 0 C2.64 0 5.28 0 8 0 C8 27.72 8 55.44 8 84 C-15.25865288 84.08021762 -15.25865288 84.08021762 -25.16992188 84.09765625 C-31.93386979 84.10961361 -38.69776358 84.12376221 -45.46166992 84.15087891 C-50.91462103 84.17260324 -56.3675141 84.18456781 -61.82050514 84.18975449 C-63.90132371 84.19345096 -65.98213909 84.20066919 -68.06293297 84.21146011 C-70.97651419 84.22596945 -73.88985528 84.22797816 -76.8034668 84.22705078 C-77.66445984 84.23424133 -78.52545288 84.24143188 -79.41253662 84.24884033 C-83.67989133 84.23413451 -87.17417845 84.13801007 -91 82 C-92.32768247 79.34463505 -92.35381661 77.15136823 -92.5 74.1875 C-92.5721875 73.14980469 -92.644375 72.11210938 -92.71875 71.04296875 C-91.78867836 67.1053285 -90.3165463 66.23792004 -87.06252861 64.0443058 C-83.54926143 62.26545761 -80.27524666 62.34192056 -76.40258789 62.43237305 C-75.57251221 62.43164291 -74.74243652 62.43091278 -73.88720703 62.43016052 C-71.16500696 62.43362214 -68.44455443 62.4724137 -65.72265625 62.51171875 C-63.82694941 62.52105199 -61.93123045 62.52816569 -60.0355072 62.53315735 C-55.06218782 62.5521869 -50.08960633 62.60125271 -45.11657715 62.65667725 C-39.14111325 62.7169836 -33.1654017 62.73980523 -27.18972015 62.76894379 C-18.12596796 62.81732028 -9.06383266 62.9131632 0 63 C0 42.21 0 21.42 0 0 Z " fill="#790829" transform="translate(103,20)"/>
<path d="M0 0 C0.30207229 10.64835126 0.53261854 21.29567371 0.67355824 31.94744682 C0.74122906 36.8945705 0.83288784 41.83875052 0.98071289 46.78417969 C1.12265659 51.56311728 1.19982776 56.33923732 1.23340416 61.120121 C1.25730713 62.93767792 1.30399327 64.75509133 1.37449074 66.57143784 C1.89059729 80.42818463 1.89059729 80.42818463 -1.28967667 84.75437164 C-4.7668455 88.22524076 -8.72179279 90.63380473 -13 93 C-14.485 93.99 -14.485 93.99 -16 95 C-16.99 95 -17.98 95 -19 95 C-19.25531997 84.3168776 -19.45054203 73.63448518 -19.56993389 62.94892883 C-19.62725034 57.98650057 -19.70492617 53.02616505 -19.82983398 48.06494141 C-19.94971598 43.27312825 -20.01519644 38.48332189 -20.04364967 33.69012451 C-20.06391333 31.86546226 -20.10348957 30.04090517 -20.16303062 28.21710205 C-20.61047514 13.93825194 -20.61047514 13.93825194 -16.62295532 9.13916016 C-13.82649343 7.07300599 -11.12983026 5.50021475 -8 4 C-6.62102551 3.17326014 -5.24527326 2.34108301 -3.875 1.5 C-1 0 -1 0 0 0 Z " fill="#E45681" transform="translate(19,0)"/>
<path d="M0 0 C1.65322266 0.01740234 1.65322266 0.01740234 3.33984375 0.03515625 C4.44457031 0.04417969 5.54929687 0.05320312 6.6875 0.0625 C7.54214844 0.07410156 8.39679688 0.08570312 9.27734375 0.09765625 C10.93741172 5.00287446 12.59117581 9.91015957 14.23950195 14.81933594 C14.79935947 16.48395966 15.36084108 18.14803818 15.92407227 19.81152344 C19.08873421 29.16204459 22.12416979 38.44971151 24.27734375 48.09765625 C21.30734375 48.09765625 18.33734375 48.09765625 15.27734375 48.09765625 C14.60676488 46.30745015 13.94099685 44.51544136 13.27734375 42.72265625 C12.90609375 41.72492187 12.53484375 40.7271875 12.15234375 39.69921875 C11.27734375 37.09765625 11.27734375 37.09765625 11.27734375 35.09765625 C3.35734375 35.59265625 3.35734375 35.59265625 -4.72265625 36.09765625 C-6.04265625 40.05765625 -7.36265625 44.01765625 -8.72265625 48.09765625 C-11.69265625 48.09765625 -14.66265625 48.09765625 -17.72265625 48.09765625 C-15.5486265 38.6826488 -12.76582532 29.49899535 -9.8515625 20.29370117 C-9.08739057 17.87770036 -8.33049631 15.45949783 -7.57421875 13.04101562 C-7.090269 11.50377231 -6.60590969 9.96665785 -6.12109375 8.4296875 C-5.89505463 7.70691116 -5.6690155 6.98413483 -5.43612671 6.23945618 C-3.49199803 0.12525101 -3.49199803 0.12525101 0 0 Z " fill="#FEF7F9" transform="translate(57.72265625,17.90234375)"/>
<path d="M0 0 C2.11168894 2.11168894 2.48415911 3.05689421 3.2890625 5.84375 C3.61777344 6.97103516 3.61777344 6.97103516 3.953125 8.12109375 C4.17484375 8.90613281 4.3965625 9.69117188 4.625 10.5 C4.85445312 11.28503906 5.08390625 12.07007813 5.3203125 12.87890625 C7 18.7078218 7 18.7078218 7 21 C3.04 21 -0.92 21 -5 21 C-3.66006673 13.88804649 -1.98449429 6.95895997 0 0 Z " fill="#E61B58" transform="translate(60,25)"/>
</svg>
