<svg width="742" height="315" viewBox="0 0 742 315" fill="none" xmlns="http://www.w3.org/2000/svg">
<path d="M742 67.6999C738.9 72.0999 736 76.5999 732.7 80.8999C728.2 86.7999 723.7 92.7999 718.8 98.3999C712.8 105.2 706.5 111.6 700.2 118.2C698.7 119.8 696.9 121.2 695.2 122.7C694.9 123 694.4 123.3 694.1 123.2C689.9 123.1 685.7 123 681.5 122.9C681 122.9 680.4 122.7 679.9 122.7C671.3 122.5 662.7 122.3 654.1 122.1C645.9 121.9 637.6 121.8 629.4 121.6C623.4 121.5 617.4 121.2 611.4 121.1C605.1 120.9 598.8 121.1 592.6 120.4C588.7 120 584.9 119.8 581.3 121.2C579.2 122 577.1 123.4 575.8 125.2C572.9 129.3 575.2 133.2 579 135.4C580.8 136.4 583 137 585.1 137C598.4 137.3 611.7 137.4 624.9 137.6C634.9 137.8 644.8 137.7 654.8 138.2C662 138.6 668.4 141.6 674.1 145.8C684.7 153.5 689.8 164.5 691.5 177.2C692.1 181.7 692.7 186.3 692.5 190.8C692.1 202.8 690.5 214.7 684.9 225.6C676.8 241.4 663.9 251 646.6 254.5C645.3 254.8 643.9 254.6 642.6 254.6C632.6 254.6 622.6 254.5 612.6 254.6C593.9 254.7 575.2 254.9 556.6 255.1C539.2 255.3 521.8 255.4 504.3 255.6C490.6 255.8 476.8 256 463.1 256.1C462.1 256.1 461.2 256.1 459.6 256.1C462.2 252.2 464.2 248.6 466.7 245.3C473.8 235.9 480.9 226.5 488.3 217.3C492.7 211.9 497.5 206.8 502.2 201.8C503 201 504.5 200.3 505.6 200.3C541.8 200 578 199.9 614.3 199.7C614.8 199.7 615.4 199.7 615.9 199.7C617.8 199.8 619.5 199.7 620.6 197.6C621.9 195.1 622.1 192.6 620.6 190.3C620 189.4 618.6 188.8 617.5 188.7C605.7 188.4 593.8 188.3 582 188.1C571.1 187.9 560.3 187.8 549.4 187.5C547.6 187.4 545.9 186.5 544.1 186C534.6 183.1 525.9 178.8 519 171.6C510.6 162.9 505.5 152.5 503.3 140.5C500.9 127.6 504.9 116.4 511.3 105.6C516.2 97.2999 522.4 90.0999 529.6 83.6999C539 75.3999 549.6 68.9999 562.1 66.4999C564.3 66.0999 566.5 65.9999 568.7 65.7999C569.8 65.6999 570.9 65.7999 571.9 65.7999C600.7 65.9999 629.4 66.0999 658.2 66.2999C677.1 66.3999 695.9 66.5999 714.8 66.7999C723.8 66.8999 732.9 67.0999 741.9 67.1999C742 67.2999 742 67.4999 742 67.6999Z" fill="#293892"/>
<path d="M208.2 165.3C207.4 168.9 206.2 172.5 205.9 176.1C205.4 181.7 208.5 185.5 213.2 188.1C218.3 190.9 223.8 192 229.6 192C236.5 192 243.2 191.6 250 189.9C258.8 187.7 265.5 183.1 270.4 175.4C279.1 161.7 284.8 147.1 287.2 131.1C288 125.6 288.6 120 289.4 114.5C289.5 113.8 290.5 112.8 291.3 112.6C302.1 109.3 312.9 106.1 323.7 102.8C332.1 100.2 340.6 97.5999 349 95.0999C362.5 90.9999 376 86.9999 389.8 82.7999C387.7 91.4999 386.1 100.1 383.7 108.4C378.8 125.4 373.9 142.5 368.2 159.3C364.3 170.7 359.5 181.9 354.4 192.9C348.9 204.4 342.7 215.6 336.4 226.7C334.5 230 331.3 232.7 328.3 235.3C323.2 239.6 318 243.8 312.4 247.4C302.8 253.6 292.3 257.6 280.6 257.2C272.4 256.9 264.1 256.8 255.9 256.6C243.3 256.4 230.6 256.1 217.9 256.1C198.1 256 178.3 255.8 158.5 256.2C149.9 256.4 142.1 254.6 134.9 250.2C134.7 250.1 134.6 250 134.2 249.8C154.4 217.4 177.3 187.6 208.2 165.3Z" fill="#293892"/>
<path d="M0 254.9C4.1 249.7 7.8 245 11.6 240.4C17.7 233 23.8 225.6 30 218.3C32.8 215 35.7 211.7 38.7 208.5C50.1 196.7 61.3 184.7 73 173.2C81.9 164.5 91.5 156.5 101 148.3C114.1 137 128 126.7 142.6 117.6C153.1 111 163.9 105 174.8 99.1C192.7 89.4 211.6 82 231 75.9C245.5 71.3 260.3 67.4999 275.4 64.9999C285.9 63.2999 296.5 61.6 307.1 60.2C314.1 59.2 321.2 58.5999 328.3 57.9999C336.2 57.2999 344.1 56.8 352 56.4C362.4 55.9 372.7 55.3999 383.1 55.2999C400.4 55.0999 417.8 55.2999 434 55.2999C430.1 56.1999 425.1 57.3 420.1 58.4C411.5 60.3 402.8 61.9 394.2 63.9C380.4 67.2 366.6 70.5 352.9 74.1C341.8 77 330.8 80 319.9 83.6C304.3 88.8 288.8 94.1 273.6 100.1C258.6 106 244.1 113 230.5 121.7C222.2 127 213.9 132.5 206 138.4C200.8 142.2 196 146.7 191.1 150.9C188.9 152.8 186.7 154.8 184.6 156.9C173.4 168 162.8 179.7 153.4 192.4C143.5 205.8 133.7 219.4 124 233C119.2 239.7 114.6 246.5 110 253.3C109 254.8 107.8 254.9 106.4 254.9C79.1 254.9 51.7 254.9 24.4 254.9C17.4 254.9 10.4 254.9 3.4 254.9C2.3 254.9 1.4 254.9 0 254.9Z" fill="#EC1D26"/>
<path d="M413.9 120.1C406 119.8 398.5 119.5 390.9 119.2C390.4 115.7 391.2 112.8 393.4 110.2C399.8 102.7 406.3 95.2 412.7 87.7C418.8 80.4 424.9 73.0999 431 65.7999C431.4 65.2999 432.1 64.7 432.7 64.7C444.7 64.8 456.7 64.9999 468.7 65.0999C481.3 65.1999 493.8 65.0999 507.1 65.0999C484.9 129.4 463 192.9 441.1 256.4C416.9 256.4 392.7 256.4 368.2 256.4C383.3 210.9 398.5 165.6 413.9 120.1Z" fill="#293892"/>
<path d="M308.2 44.5C309 42.8 309.6 41.5 310.3 40.3C315.7 29.4 321.1 18.5 326.4 7.60001C327.2 5.90001 328.1 5.3 330 5.3C340.2 4.9 350.3 4.30001 360.5 3.70001C366.1 3.40001 371.7 3.00001 377.3 2.60001C386.6 2.00001 396 1.5 405.3 1C408.9 0.8 412.5 0.4 416.6 0C414.9 3.4 413.3 6.60001 411.7 9.70001C408.1 16.5 404.5 23.4 400.9 30.2C400.1 31.7 398.9 33.1 398.6 34.6C397.5 39 394.1 39.4 390.5 39.5C382.7 39.9 375 40.2 367.2 40.6C361.3 40.9 355.5 41.3 349.6 41.7C340.7 42.2 331.8 42.8 322.9 43.3C318.2 43.6 313.5 44 308.2 44.5Z" fill="#293892"/>
<path d="M131.9 281C134.7 281 137 281 139.5 281C140.9 288.9 139.8 296.8 140.3 305.3C142.2 301.6 143.9 298.4 145.5 295.1C147.6 290.7 149.7 286.3 151.8 282C152.1 281.5 153 281 153.6 280.9C155.5 280.8 157.3 280.9 159.5 280.9C159.7 284.9 159.9 288.8 160.1 292.7C160.3 296.5 160.5 300.3 160.7 305C163.2 299.8 165.5 295.4 167.6 290.9C169 288 170.2 284.9 171.6 282C171.9 281.5 172.8 281.1 173.5 281C175.4 280.9 177.3 281 179.3 281C179 281.9 178.7 282.6 178.4 283.3C173.6 293.3 168.7 303.3 163.8 313.3C163.6 313.8 162.8 314.3 162.2 314.4C159.8 314.5 157.4 314.5 154.9 314.5C154.5 306.8 154 299.3 153.6 291.8C153.5 291.8 153.3 291.7 153.2 291.7C150.1 297.8 146.8 303.8 144 310.1C142.5 313.5 140.6 315.2 136.9 314.5C135.8 314.3 134.6 314.5 133.6 314.5C133.4 314.2 133.2 314 133.2 313.9C133 306.6 132.8 299.2 132.6 291.9C132.4 288.3 132.1 284.8 131.9 281Z" fill="white"/>
<path d="M566.4 314.3C564.2 314.3 562.3 314.3 560.2 314.3C562.6 303.2 564.9 292.1 567.3 280.9C569.5 280.9 571.7 280.8 573.8 281C574.5 281.1 575.5 281.9 575.7 282.6C577.1 289.6 578.4 296.7 579.8 304.2C583.5 298.3 587 292.7 590.5 287.1C591.6 285.4 592.6 283.6 593.7 281.9C594 281.4 594.8 280.9 595.4 280.9C597.6 280.8 599.9 280.9 602.2 280.9C599.8 292.1 597.4 303.2 595.1 314.3C593 314.3 591.2 314.3 589 314.3C590.3 307.9 591.7 301.5 593 295.2C592.9 295.1 592.8 295.1 592.7 295C590.1 299.2 587.6 303.4 585 307.5C583.9 309.3 583 311.3 581.7 312.9C581 313.7 579.7 314.1 578.6 314.3C577.6 314.5 576.5 314.3 575.1 314.3C573.8 307.8 572.4 301.3 571 294.1C569.2 301.4 567.8 307.8 566.4 314.3Z" fill="white"/>
<path d="M325.2 314.3C323.3 314.3 321.8 314.3 320.2 314.3C316.1 307.1 311.9 299.9 307.7 292.4C306.1 299.8 304.6 307 303 314.2C300.7 314.2 298.5 314.2 296.1 314.2C298.5 303.1 300.8 292 303.1 281.2C303.5 281 303.6 281 303.6 280.9C308.4 279.9 311.2 281.7 313.2 286.3C315.3 291.2 318.2 295.7 321 300.8C322.5 293.8 323.9 287.4 325.2 281C327.6 281 329.8 281 332.1 281C329.9 292.2 327.6 303.2 325.2 314.3Z" fill="white"/>
<path d="M432.4 290.1C432 292.4 431.7 294.4 431.3 296.6C434.7 296.6 438.1 296.6 441.5 296.6C442.1 296.6 443 296.3 443.1 296C443.8 293.5 444.4 290.9 444.9 288.3C444.9 288.1 443.5 287.4 442.7 287.4C437.9 287.3 433.2 287.4 428.4 287.4C427.5 287.4 426.6 287.4 425.5 287.4C426 285.1 426.5 283.2 427 281C434.5 281 442 280.9 449.6 281C451.8 281 453.6 283.3 453.2 285.4C452.7 288.3 452.2 291.2 451.2 293.9C450.5 295.9 448.9 297.6 447.8 299.2C449.5 299.6 450.4 301 449.8 303.4C449.1 306.5 448.5 309.6 447.7 312.7C447.5 313.4 446.6 314.3 445.9 314.3C444 314.5 442 314.4 439.9 314.4C440.6 310.8 441.4 307.4 441.9 303.9C442 303.3 441.2 302.1 440.8 302.1C437.6 301.9 434.3 301.9 431.1 302.1C430.5 302.1 429.7 303.1 429.5 303.8C428.8 306.6 428.3 309.5 427.8 312.3C427.6 313.7 427.1 314.6 425.4 314.5C423.6 314.4 421.8 314.5 419.7 314.5C421 308.3 422.4 302.2 423.6 296.2C423.8 295.4 423.9 294.6 424 293.8C424.3 290.9 425.6 289.5 428.7 290.2C429.9 290.3 431.1 290.1 432.4 290.1Z" fill="white"/>
<path d="M205.1 314.4C206.7 306.7 208.2 299.1 209.9 291.5C210 290.9 211.1 290.2 211.7 290.1C213.7 289.9 215.6 290 217.6 290C217.2 292.2 216.9 294.3 216.5 296.5C219.9 296.5 223.3 296.6 226.6 296.4C227.3 296.4 228.3 295.4 228.6 294.7C229.2 293.1 229.2 291.2 229.8 289.6C230.6 287.6 229.7 287.3 228 287.3C222.9 287.3 217.7 287.3 212.6 287.3C212.1 287.3 211.5 287.2 210.7 287.2C211.2 285 211.6 283 212.1 280.9C219.6 280.9 226.9 280.9 234.3 280.9C236.9 280.9 238.7 283.2 238.3 285.5C237.8 288.2 237.5 290.9 236.5 293.5C235.7 295.6 234.1 297.4 233 299.1C234.8 299.3 235.4 301 235 303.3C234.4 306.5 233.7 309.7 232.9 312.8C232.7 313.4 231.8 314.2 231.2 314.3C229.2 314.5 227.3 314.4 225.1 314.4C225.8 310.8 226.3 307.4 227.2 304C227.6 302.4 227.2 302 225.9 302C222.8 302 219.6 301.9 216.5 302.1C215.9 302.1 215 303.2 214.8 303.9C214.1 306.7 213.6 309.6 213.1 312.4C212.9 313.6 212.4 314.5 210.9 314.4C208.9 314.3 207 314.4 205.1 314.4Z" fill="white"/>
<path d="M418.6 295.1C417.3 301.1 416 306.7 414.9 312.4C414.6 313.9 414.2 314.4 412.7 314.4C406 314.4 399.2 314.4 392.5 314.4C389.8 314.4 388.5 312.8 389 310.1C390.5 301.8 392.2 293.5 393.9 285.3C394.4 283 397 281.1 400 281.1C407 281 414 281.1 421 281.1C420 287.6 420 287.6 413.4 287.6C410 287.6 406.6 287.6 403.1 287.6C401.3 287.6 400.4 288.2 400.1 290.2C399.2 295.6 398.1 300.9 396.8 306.2C396.3 308.1 397.1 308.2 398.5 308.2C401.8 308.2 405.1 308.2 408.7 308.2C409.2 305.5 409.8 302.9 410.3 300.1C408 300.1 405.9 300.1 403.7 300.1C404.1 298.4 404.4 296.9 404.8 295.4C409.5 295.1 414 295.1 418.6 295.1Z" fill="white"/>
<path d="M530.9 280.9C530.5 283.2 530.1 285.2 529.7 287.4C524.9 287.4 520 287.3 515.2 287.4C510.1 287.5 511.3 286.4 509.7 291.7C509.5 292.4 509.5 293.3 509.3 294.4C514 294.4 518.6 294.4 523.2 294.4C527 294.4 528 295.6 527.2 299.4C526.4 303.2 525.6 306.9 524.6 310.7C523.9 313.3 521.7 314.3 519.3 314.3C512.1 314.4 504.9 314.3 497.8 314.3C497.7 314 497.5 313.8 497.6 313.7C499.2 307.8 499.2 307.8 505.5 307.8C508.9 307.8 512.3 307.7 515.7 307.8C517.4 307.9 518.2 307.3 518.5 305.5C519.9 298.4 520.4 299.7 513.7 299.6C510.8 299.5 507.9 299.6 505.1 299.6C501.9 299.5 500.7 297.8 501.5 294.7C502.2 291.9 502.7 289 503.4 286.2C504.2 282.7 506.2 280.8 509.6 280.8C516.6 280.9 523.6 280.9 530.9 280.9Z" fill="white"/>
<path d="M663.7 280.9C663.3 283.2 662.9 285.2 662.4 287.4C657.4 287.4 652.4 287.6 647.4 287.3C644.3 287.1 642.7 288.1 642.6 291.3C642.6 292.2 642.2 293.2 641.9 294.4C646.6 294.4 651 294.4 655.4 294.4C659.8 294.4 660.8 295.4 659.9 299.7C659.2 303.4 658.3 307.1 657.4 310.7C656.7 313.2 654.6 314.2 652.4 314.3C645.1 314.5 637.9 314.4 630.5 314.4C630.5 314 630.4 313.8 630.5 313.5C632 307.9 632 307.9 638.1 307.9C641.6 307.9 645.1 307.8 648.6 307.9C650.4 308 651.1 307.4 651.4 305.6C652.7 299.7 652.7 299.7 646.6 299.7C643.7 299.7 640.8 299.7 638 299.7C634.9 299.6 633.6 297.9 634.4 294.8C635.1 292 635.6 289.1 636.3 286.3C637.1 282.9 639.1 281 642.5 280.9C649.4 280.9 656.4 280.9 663.7 280.9Z" fill="white"/>
<path d="M13 290.1C12.5 292.6 12 294.9 11.5 297.6C15.2 297.6 18.7 297.6 22.2 297.6C22.7 297.6 23.4 297 23.5 296.6C24.2 293.7 24.8 290.8 25.5 287.5C18.9 287.5 12.8 287.5 6.10005 287.5C6.60005 285.2 7.00005 283.2 7.50005 280.9C14.8 280.9 22.2 280.8 29.5 280.9C32 280.9 33.6 283.4 33.1 285.8C32.2 289.8 31.4 293.9 30.5 297.9C29.6 302 27.7001 303.5 23.4001 303.5C19.1001 303.5 14.8 303.5 10.2 303.5C9.60005 306.3 8.80005 309.1 8.40005 311.9C8.10005 313.8 7.40005 314.5 5.50005 314.3C3.80005 314.2 2.10005 314.3 0.300049 314.3C1.90005 306.6 3.50005 299.1 5.20005 291.7C5.30005 291 6.40005 290.2 7.10005 290.1C9.00005 290 10.9 290.1 13 290.1Z" fill="white"/>
<path d="M113.4 281C116.7 281 119.8 281 123.1 281C123.9 292 124.8 303 125.6 314.2C123 314.2 120.6 314.2 118 314.2C118 312.6 118 310.9 118 309C114 309 110.4 309 106.7 309.1C106.2 309.1 105.5 309.7 105.2 310.2C104.4 311.5 103.8 312.9 103.1 314.3C100.8 314.3 98.5001 314.3 95.9001 314.3C101.9 303.1 107.6 292.1 113.4 281ZM116.8 288.4C116.6 288.3 116.5 288.2 116.3 288.1C113.8 293.1 111.2 298.2 108.6 303.4C111.8 303.4 114.5 303.4 117.6 303.4C117.3 298.3 117.1 293.4 116.8 288.4Z" fill="white"/>
<path d="M171.6 314.4C175.5 306.8 179.3 299.5 183.1 292.3C184.8 288.9 186.6 285.5 188.4 282.2C188.7 281.6 189.5 281 190.1 281C193 280.9 195.8 280.9 198.7 280.9C199.5 292.1 200.4 303 201.2 314.2C198.6 314.2 196.3 314.2 193.7 314.2C193.7 312.6 193.7 311 193.7 309C189.7 309 185.9 308.9 182.2 309.1C181.7 309.1 180.8 309.9 180.7 310.5C179.8 314 177.5 315 174.1 314.4C173.4 314.3 172.7 314.4 171.6 314.4ZM193.2 303.5C192.9 298.2 192.6 293.2 192.3 288.3C192.1 288.3 192 288.3 191.8 288.2C189.3 293.2 186.8 298.2 184.2 303.5C187.3 303.5 190 303.5 193.2 303.5Z" fill="white"/>
<path d="M257.9 309C255.4 309 253.4 309.2 251.5 309C247.2 308.5 243.8 309.2 243.4 314.3C240.8 314.3 238.5 314.3 235.9 314.3C241.7 303.2 247.5 292.2 253.3 281.1C256.4 281.1 259.7 281.1 263 281.1C263.8 292.1 264.7 303 265.5 314.2C262.9 314.2 260.6 314.2 257.9 314.2C257.9 312.6 257.9 310.9 257.9 309ZM257.4 303.5C257.1 298.2 256.8 293.2 256.6 288.3C256.4 288.3 256.3 288.2 256.1 288.2C253.6 293.2 251.1 298.3 248.4 303.6C251.6 303.5 254.2 303.5 257.4 303.5Z" fill="white"/>
<path d="M713 314.3C710.2 314.3 707.9 314.3 705.4 314.3C705.4 312.6 705.4 311 705.4 309C701.4 309 697.6 308.9 693.7 309.1C693.2 309.1 692.5 310.1 692.3 310.7C691.4 313.9 689.3 315 686.1 314.4C685.3 314.2 684.4 314.4 683.3 314.4C685.6 309.8 687.8 305.5 690 301.2C693.2 295 696.6 288.9 699.7 282.7C700.4 281.4 701 280.8 702.5 280.9C705.1 281 707.7 280.9 710.4 280.9C711.3 292.1 712.1 303 713 314.3ZM704.1 288.3C703.9 288.2 703.8 288.2 703.6 288.1C701.1 293.1 698.6 298.2 696 303.4C699.1 303.4 701.9 303.4 704.9 303.4C704.6 298.3 704.4 293.3 704.1 288.3Z" fill="white"/>
<path d="M477.8 280.9C478.6 292.2 479.5 303.1 480.3 314.2C477.6 314.2 475.3 314.2 472.7 314.2C472.7 312.5 472.7 310.9 472.7 308.9C468.8 308.9 465.1 308.8 461.4 309C460.8 309 459.9 309.9 459.7 310.5C458.8 313.9 456.6 314.8 453.3 314.3C452.5 314.2 451.7 314.3 450.6 314.3C452.9 309.7 455.1 305.4 457.4 301C460.6 294.9 463.9 288.9 467 282.7C467.7 281.3 468.4 280.7 470 280.8C472.6 281 475.1 280.9 477.8 280.9ZM472.2 303.5C471.9 298.2 471.7 293.3 471.4 288.3C471.2 288.3 471.1 288.2 470.9 288.2C468.4 293.2 465.9 298.3 463.2 303.6C466.4 303.5 469 303.5 472.2 303.5Z" fill="white"/>
<path d="M70.6001 314.4C70.7001 313.8 70.7001 313.7 70.7001 313.5C72.2001 307.9 72.2001 307.9 78.0001 307.9C80.2001 307.9 82.5001 307.8 84.7001 307.9C86.4001 308 87.1001 307.3 87.4001 305.7C88.6001 300 89.7001 294.3 90.9001 288.6C91.0001 288.3 90.9 287.9 90.8 287.3C89.1 287.3 87.4 287.3 85.5 287.3C86 285 86.4 283 86.8 280.9C91.2 280.9 95.5 280.9 100 280.9C98.3 288.9 96.8001 296.9 95.1001 304.8C93.1001 313.9 92.8 314.3 82.8 314.2C78.8 314.3 74.8001 314.4 70.6001 314.4Z" fill="white"/>
<path d="M382.4 314.3C374 314.3 366 314.3 357.5 314.3C359.2 306.2 361 298.2 362.7 290.2C365.3 290.2 367.8 290.2 370.3 290.2C370 291.9 369.7 293.5 369.4 295.4C373.4 295.4 377.2 295.4 381 295.4C381.4 299.7 380.9 300.3 377 300.3C374 300.3 371.1 300.3 368.1 300.3C367.6 302.9 367.2 305.2 366.7 307.9C372.5 307.9 377.9 307.9 383.7 307.9C383.3 310.2 382.9 312.2 382.4 314.3Z" fill="white"/>
<path d="M554.6 314.3C546.2 314.3 538.2 314.3 529.7 314.3C531.4 306.2 533.2 298.2 534.9 290.2C537.5 290.2 540 290.2 542.5 290.2C542.2 291.9 541.9 293.5 541.6 295.4C545.6 295.4 549.4 295.4 553.2 295.4C553.6 299.7 553.1 300.3 549.2 300.3C546.2 300.3 543.3 300.3 540.3 300.3C539.8 302.9 539.4 305.2 538.9 307.9C544.7 307.9 550.1 307.9 555.9 307.9C555.5 310.2 555.1 312.2 554.6 314.3Z" fill="white"/>
<path d="M605.1 290.2C607.8 290.2 610.2 290.2 612.7 290.2C612.4 291.9 612.2 293.6 611.9 295.5C616 295.5 619.8 295.5 623.7 295.5C623.7 300.1 623.5 300.3 619.4 300.3C616.5 300.3 613.7 300.3 610.7 300.3C610.2 302.8 609.8 305.2 609.2 307.8C614.9 307.8 620.4 307.8 626.2 307.8C625.7 310.1 625.3 312.1 624.8 314.2C616.6 314.2 608.5 314.2 600 314.2C601.6 306.2 603.3 298.3 605.1 290.2Z" fill="white"/>
<path d="M36.1001 287.5C36.1001 287 36.1001 286.8 36.1001 286.7C37.7001 281 37.7001 281 43.9001 281C49.6001 281 55.4001 281 61.1001 281C61.2001 281.3 61.3 281.5 61.3 281.7C61.3 288.5 56.6 287.9 51.8 287.3C49.9 296.4 48.0001 305.3 46.0001 314.3C43.7001 314.3 41.3001 314.3 38.5001 314.3C40.4001 305.4 42.2001 296.6 44.1001 287.5C41.4001 287.5 38.7001 287.5 36.1001 287.5Z" fill="white"/>
<path d="M351.3 287.4C349.4 296.5 347.5 305.4 345.6 314.3C343.2 314.3 340.9 314.3 338.1 314.3C340 305.3 341.8 296.5 343.7 287.5C341 287.5 338.4 287.5 336 287.5C335.8 287.1 335.7 286.9 335.7 286.8C337.3 280.9 337.3 280.9 343.6 280.9C349.3 280.9 355.1 280.9 360.8 280.9C360.9 281.2 360.9 281.3 360.9 281.4C359.9 283.3 361.2 286.5 358.5 287.2C356.3 287.9 353.8 287.4 351.3 287.4Z" fill="white"/>
<path d="M691.6 280.9C691.7 281.2 691.7 281.3 691.7 281.4C690.2 287.3 690.2 287.3 684 287.4C683.5 287.4 682.9 287.4 682.2 287.5C680.3 296.5 678.4 305.4 676.5 314.3C674.1 314.3 671.8 314.3 669 314.3C670.9 305.3 672.7 296.5 674.6 287.5C671.9 287.5 669.3 287.5 666.8 287.5C666.6 287.1 666.5 286.9 666.5 286.8C668.1 280.9 668.1 280.9 674.4 280.9C680.2 280.9 685.9 280.9 691.6 280.9Z" fill="white"/>
<path d="M283.4 314.4C285.8 303.2 288.1 292.2 290.5 281.1C292.9 281.1 295.2 281.1 297.8 281.1C297.4 283.3 297.1 285.5 296.7 287.6C294.9 296.1 293.1 304.6 291.2 313.1C291.1 313.7 290 314.3 289.3 314.4C287.4 314.5 285.5 314.4 283.4 314.4Z" fill="white"/>
<path d="M535.5 287.4C536.6 280.9 536.6 280.9 543 280.9C549.2 280.9 555.4 280.9 561.6 280.9C560.1 287.4 560.1 287.4 553.8 287.4C547.7 287.4 541.6 287.4 535.5 287.4Z" fill="white"/>
<path d="M389.4 280.9C389.4 281.4 389.4 281.6 389.3 281.7C387.8 287.3 387.8 287.3 381.8 287.3C375.7 287.3 369.6 287.3 363.5 287.3C363.5 287.1 363.5 286.9 363.5 286.8C364.3 280.9 364.3 280.9 370.4 280.9C376.7 280.9 382.9 280.9 389.4 280.9Z" fill="white"/>
<path d="M605.7 287.4C606.7 280.9 606.7 280.9 613 280.9C619.2 280.9 625.4 280.9 631.5 280.9C631.6 281.2 631.8 281.3 631.8 281.5C630.2 287.4 630.2 287.4 624 287.4C617.9 287.4 611.9 287.4 605.7 287.4Z" fill="white"/>
</svg>
