<?xml version="1.0" encoding="UTF-8"?>
<svg version="1.1" xmlns="http://www.w3.org/2000/svg" width="250" height="244">
<path d="M0 0 C1.09883041 -0.00679667 1.09883041 -0.00679667 2.21985942 -0.01373065 C4.65769079 -0.02632118 7.09529721 -0.02475775 9.53315735 -0.02310181 C11.28809901 -0.0290905 13.04303804 -0.03589683 14.79797363 -0.04345703 C19.55442565 -0.06109195 24.31080566 -0.06581142 29.06728721 -0.0670886 C32.04323619 -0.06851246 35.019167 -0.07278657 37.99511147 -0.07808304 C48.38964114 -0.09657677 58.78411958 -0.10475469 69.17866516 -0.10317993 C78.84722755 -0.10197951 88.51556635 -0.12306401 98.1840722 -0.15466726 C106.50111551 -0.18087807 114.81808602 -0.19154518 123.13517028 -0.19026911 C128.09532748 -0.18976079 133.05528601 -0.19537194 138.01540184 -0.21662521 C142.68504983 -0.23608806 147.35431129 -0.23607739 152.02397346 -0.22159195 C153.729868 -0.21951253 155.43578725 -0.2241526 157.14163971 -0.23631287 C172.49450292 -0.33859543 183.73172104 2.18506687 195.1554718 12.82992554 C203.2108391 21.55657344 207.64078265 30.54506496 207.67289734 42.64089966 C207.67742845 43.34965752 207.68195956 44.05841538 207.68662798 44.78865075 C207.69921265 47.14590119 207.69765549 49.50291882 207.69599915 51.86019897 C207.70198816 53.5576507 207.70879457 55.25509971 207.71635437 56.95254517 C207.73398483 61.55191074 207.73870854 66.15120185 207.73998594 70.75059795 C207.74140992 73.62804368 207.74568421 76.50547063 207.75098038 79.38291168 C207.76947177 89.43264462 207.77765221 99.48232459 207.77607727 109.53207397 C207.77487652 118.88142248 207.79596808 128.23053988 207.8275646 137.57982993 C207.85376844 145.62170102 207.86444283 153.66349682 207.86316645 161.70541024 C207.86265797 166.50177661 207.86827773 171.29793755 207.88952255 176.09426117 C207.90897398 180.60878372 207.90898249 185.12290638 207.89448929 189.63744354 C207.89240854 191.28731881 207.89705799 192.93721957 207.90921021 194.58705139 C208.01436534 209.86175264 204.66353344 221.40976941 194.2804718 232.95492554 C186.20384403 240.67259208 174.87686331 244.50630995 163.88687134 244.53485107 C162.80029158 244.54164774 162.80029158 244.54164774 161.69176072 244.54858172 C159.28156765 244.56117033 156.87160216 244.55960896 154.46138 244.55795288 C152.7261425 244.5639417 150.99090764 244.57074806 149.25567627 244.57830811 C144.55294138 244.59594182 139.85027933 244.60066245 135.14751458 244.60193968 C132.20506746 244.60336361 129.2626387 244.60763786 126.32019615 244.61293411 C116.04237574 244.63142747 105.76460713 244.63960581 95.48677063 244.63803101 C85.92727032 244.63683061 76.36799616 244.65791473 66.80855304 244.68951833 C58.5849271 244.71573056 50.36137478 244.72639619 42.13770741 244.72512019 C37.23344065 244.7246119 32.32937484 244.73022082 27.42514992 244.75147629 C22.80803018 244.77094155 18.19130135 244.77092685 13.57416725 244.75644302 C11.88762333 244.75436389 10.20105442 244.75900191 8.51455307 244.77116394 C-5.14570851 244.86322643 -16.62008681 242.99178804 -27.5945282 234.26742554 C-28.20941101 233.78918335 -28.82429382 233.31094116 -29.45780945 232.81820679 C-35.80094616 227.23455873 -41.01456015 217.6290754 -42.5945282 209.26742554 C-42.69315239 206.93366618 -42.73380111 204.59727309 -42.74169922 202.26144409 C-42.74537591 201.55595507 -42.74905259 200.85046605 -42.7528407 200.12359858 C-42.76385411 197.75942412 -42.76771745 195.39529366 -42.77153015 193.03109741 C-42.77779676 191.33571229 -42.78444374 189.64032854 -42.79144287 187.94494629 C-42.81246885 182.37536574 -42.8228465 176.80578497 -42.83280945 171.23617554 C-42.83685808 169.31595343 -42.84097504 167.39573146 -42.84515953 165.47550964 C-42.86421098 156.44984753 -42.87843997 147.42419358 -42.8867715 138.39851522 C-42.89653265 127.9968859 -42.92282303 117.59547001 -42.96327239 107.19391584 C-42.99349493 99.14445556 -43.00824634 91.09505623 -43.01155251 83.04554033 C-43.01389673 78.24293576 -43.02277457 73.4405592 -43.04801369 68.63801575 C-43.07140589 64.11369849 -43.07548314 59.58975756 -43.0652523 55.06539536 C-43.06475947 53.41271076 -43.07100472 51.76000694 -43.08480835 50.10737991 C-43.20446156 34.92145915 -40.54724513 23.80204858 -30.0320282 12.51742554 C-21.21616506 4.37970572 -12.20750118 0.03134481 0 0 Z " fill="#001E36" transform="translate(42.59452819824219,-0.267425537109375)"/>
<path d="M0 0 C0.90947388 -0.0033284 1.81894775 -0.0066568 2.75598145 -0.01008606 C4.68952935 -0.01516292 6.62308606 -0.01749415 8.55664062 -0.01733398 C11.49103711 -0.01950155 14.42504607 -0.03759618 17.359375 -0.05664062 C19.23958205 -0.05957832 21.11979089 -0.0615606 23 -0.0625 C23.86911011 -0.06968552 24.73822021 -0.07687103 25.63366699 -0.08427429 C38.70843583 -0.03621223 51.60945054 3.74616929 61.03125 13.16796875 C68.64880062 22.87341333 70.24720135 34.08259865 69.03125 46.16796875 C66.44502466 55.85964825 61.09947882 63.28846158 53.03125 69.16796875 C47.34735673 72.42310621 41.42871444 73.98887403 35.03125 75.16796875 C32.55625 75.66296875 32.55625 75.66296875 30.03125 76.16796875 C24.42125 76.16796875 18.81125 76.16796875 13.03125 76.16796875 C13.03125 87.38796875 13.03125 98.60796875 13.03125 110.16796875 C5.44125 110.16796875 -2.14875 110.16796875 -9.96875 110.16796875 C-9.99129812 95.97340492 -10.0096634 81.77885289 -10.02056217 67.58427525 C-10.02579172 60.9939209 -10.03289067 54.40357938 -10.04418945 47.81323242 C-10.05501578 41.45904857 -10.06102629 35.1048771 -10.06362724 28.75068474 C-10.06548195 26.32047264 -10.06910343 23.89026126 -10.07448006 21.4600544 C-10.08168711 18.06913894 -10.08274108 14.67827534 -10.08227539 11.28735352 C-10.08587067 10.27171829 -10.08946594 9.25608307 -10.09317017 8.20967102 C-10.0917955 7.29115356 -10.09042084 6.37263611 -10.08900452 5.42628479 C-10.08992631 4.6234031 -10.0908481 3.82052141 -10.09179783 2.99330997 C-9.76963434 -1.78579348 -3.61741202 0.00454707 0 0 Z " fill="#30A5FB" transform="translate(65.96875,61.83203125)"/>
<path d="M0 0 C0 6.6 0 13.2 0 20 C-6 19 -6 19 -9.8203125 17.953125 C-14.19930586 16.83180257 -18.37310627 16.70261164 -22.875 16.75 C-23.63296875 16.74226563 -24.3909375 16.73453125 -25.171875 16.7265625 C-29.55460348 16.58300372 -29.55460348 16.58300372 -33 19 C-33.14091482 21.47326954 -33.14091482 21.47326954 -32 24 C-27.82618592 27.18034636 -23.66065258 29.03007694 -18.75 30.8125 C-8.93093987 34.58126146 -0.62233211 39.11035921 4 49 C6.08633188 55.25899563 5.736185 61.18258392 3 67.1875 C-0.84611331 74.11704125 -6.63745425 79.0549817 -14 82 C-19.37246588 83.27210368 -24.63002333 83.22182063 -30.125 83.25 C-31.10726562 83.270625 -32.08953125 83.29125 -33.1015625 83.3125 C-41.14747263 83.3548469 -49.17179919 82.55213387 -56 78 C-56.34057617 75.93701172 -56.34057617 75.93701172 -56.29296875 73.4296875 C-56.28330078 72.53378906 -56.27363281 71.63789063 -56.26367188 70.71484375 C-56.23853516 69.77769531 -56.21339844 68.84054688 -56.1875 67.875 C-56.17396484 66.93011719 -56.16042969 65.98523438 -56.14648438 65.01171875 C-56.11106306 62.67391221 -56.06167271 60.33723763 -56 58 C-52.46420398 58.59451438 -49.57160538 59.59826425 -46.3125 61.0625 C-40.97858912 63.06910122 -36.13034044 63.37893376 -30.5 63.375 C-29.71020752 63.37636963 -28.92041504 63.37773926 -28.10668945 63.37915039 C-24.24933483 63.30549069 -22.27386553 63.18257702 -19 61 C-18.66630667 58.14442244 -18.66630667 58.14442244 -20 55 C-23.25447688 52.88775399 -26.83468739 51.59718274 -30.4375 50.1875 C-40.03026319 46.14342415 -48.10740453 42.39561452 -53.70703125 33.1953125 C-56.26691655 26.86907027 -56.35733791 18.92723103 -54.12109375 12.45703125 C-52.91025103 10.39100589 -51.63913091 8.74313668 -50 7 C-49.49210938 6.44957031 -48.98421875 5.89914063 -48.4609375 5.33203125 C-36.53040969 -6.11788288 -14.68822352 -5.87528941 0 0 Z " fill="#30A6FC" transform="translate(202,91)"/>
<path d="M0 0 C3.3 -0.103125 6.6 -0.20625 10 -0.3125 C11.53527344 -0.38078003 11.53527344 -0.38078003 13.1015625 -0.45043945 C19.70203676 -0.54942102 23.89960764 0.77033076 29 5 C32.70371522 8.7963081 33.29656006 11.85678396 33.5 17 C33.31000458 22.11720994 32.62833663 25.18069828 29 29 C19.97759706 36.21792235 11.65784275 35 0 35 C0 23.45 0 11.9 0 0 Z " fill="#001F37" transform="translate(79,83)"/>
</svg>
